<svg width="400" height="156" viewBox="0 0 400 156" fill="none" xmlns="http://www.w3.org/2000/svg">
<path fill-rule="evenodd" clip-rule="evenodd" d="M1.86145 36.1766C-0.527818 33.9344 -0.66037 30.1637 1.71533 27.9071C10.4891 19.5729 20.6924 12.8639 31.8516 8.11139C44.8322 2.58316 58.8214 -0.176396 72.9269 0.00873478C87.0324 0.193866 100.944 3.31962 113.776 9.18663C124.807 14.2304 134.831 21.2048 143.383 29.7664C145.699 32.0847 145.468 35.8505 143.021 38.0293C140.573 40.2081 136.838 39.9728 134.505 37.6725C127.06 30.3341 118.38 24.3437 108.848 19.9855C97.5158 14.8039 85.229 12.0433 72.7714 11.8798C60.3139 11.7163 47.959 14.1535 36.4948 19.0359C26.8524 23.1424 18.0181 28.9029 10.3836 36.0435C7.9906 38.2817 4.25072 38.4189 1.86145 36.1766ZM20.3656 52.3101C17.9736 50.0617 17.8406 46.2788 20.2643 44.0648C26.6645 38.218 34.0153 33.4842 42.0136 30.0751C51.8372 25.888 62.4231 23.7908 73.0995 23.9166C83.7759 24.0423 94.3096 26.3883 104.032 30.8056C111.948 34.4021 119.185 39.3078 125.446 45.3036C127.817 47.5742 127.596 51.3529 125.151 53.5443C122.707 55.7356 118.968 55.5058 116.566 53.2689C111.426 48.4833 105.537 44.5515 99.121 41.6366C90.8981 37.9006 81.9893 35.9165 72.9597 35.8102C63.9301 35.7038 54.9771 37.4776 46.6687 41.0188C40.1862 43.7818 34.2066 47.5737 28.9555 52.2369C26.5009 54.4167 22.7577 54.5584 20.3656 52.3101ZM95.8051 93.252C92.9887 93.252 90.7055 95.5375 90.7055 98.3568V106.08C90.7055 108.9 92.9887 111.185 95.8051 111.185H96.3549C99.1714 111.185 101.455 108.9 101.455 106.08V98.3568C101.455 95.5375 99.1714 93.252 96.3549 93.252H95.8051ZM41.7374 98.3576C41.7374 95.5384 44.0206 93.2529 46.837 93.2529H47.3868C50.2033 93.2529 52.4865 95.5384 52.4865 98.3576V106.081C52.4865 108.901 50.2033 111.186 47.3868 111.186H46.837C44.0206 111.186 41.7374 108.901 41.7374 106.081V98.3576ZM125.341 101.62C125.341 131.333 101.279 155.419 71.596 155.419C41.9131 155.419 17.8505 131.333 17.8505 101.62C17.8505 71.9076 41.9131 47.8209 71.596 47.8209C101.279 47.8209 125.341 71.9076 125.341 101.62ZM29.7939 101.27C29.7939 91.5593 37.6582 83.6871 47.3594 83.6871H95.8326C105.534 83.6871 113.398 91.5593 113.398 101.27V103.166C113.398 112.877 105.534 120.749 95.8326 120.749H82.5523L75.0773 111.776C73.2651 109.601 69.9269 109.601 68.1147 111.776L60.6397 120.749H47.3594C37.6582 120.749 29.7939 112.877 29.7939 103.166V101.27ZM249.504 84.9333H263.203V5.2H251.138V56.5761C251.138 61.6178 251.314 65.1949 251.665 67.3074H251.454C251.033 66.418 250.084 64.7872 248.609 62.4144L213.729 5.2H199.134V84.9333H211.253V32.6672C211.253 27.0704 211.112 23.4193 210.831 21.7138H211.148C211.744 23.3076 212.5 24.8462 213.413 26.329L249.504 84.9333ZM171.954 84.4134C173.459 85.9158 175.286 86.6667 177.435 86.6667C179.621 86.6667 181.466 85.9158 182.971 84.4134C184.511 82.8726 185.281 81.043 185.281 78.9247C185.281 76.7672 184.511 74.9188 182.971 73.3779C181.466 71.8371 179.621 71.0667 177.435 71.0667C175.286 71.0667 173.459 71.8371 171.954 73.3779C170.449 74.9188 169.697 76.7672 169.697 78.9247C169.697 81.043 170.449 82.8726 171.954 84.4134ZM323.81 84.9333H280.519V5.2H322.089V16.4319H293.319V39.006H319.831V50.1821H293.319V73.7573H323.81V84.9333ZM363.958 16.4319H386.147V5.2H329.004V16.4319H351.139V84.9333H363.958V16.4319ZM253.722 150.125H258.378V107.467H253.722V125.306H253.609C251.792 122.192 248.887 120.635 244.894 120.635C240.863 120.635 237.636 122.071 235.214 124.941C232.792 127.811 231.58 131.628 231.58 136.393C231.58 140.839 232.669 144.356 234.845 146.945C237.04 149.515 239.964 150.8 243.617 150.8C248.121 150.8 251.451 148.943 253.609 145.229H253.722V150.125ZM253.722 132.848V137.097C253.722 139.929 252.908 142.274 251.281 144.131C249.672 145.988 247.572 146.917 244.979 146.917C242.349 146.917 240.248 145.96 238.677 144.047C237.125 142.115 236.349 139.488 236.349 136.168C236.349 132.529 237.163 129.677 238.791 127.614C240.418 125.55 242.651 124.519 245.49 124.519C247.875 124.519 249.843 125.325 251.395 126.939C252.946 128.552 253.722 130.522 253.722 132.848ZM174.466 134.874V150.125H169.697V109.774H180.881C185.234 109.774 188.603 110.825 190.987 112.926C193.391 115.027 194.592 117.99 194.592 121.817C194.592 125.644 193.258 128.777 190.59 131.216C187.94 133.654 184.354 134.874 179.831 134.874H174.466ZM174.466 114.051V130.597H179.462C182.755 130.597 185.262 129.856 186.985 128.374C188.726 126.873 189.596 124.762 189.596 122.042C189.596 116.715 186.417 114.051 180.058 114.051H174.466ZM211.653 150.8C207.357 150.8 203.922 149.459 201.348 146.776C198.794 144.075 197.516 140.501 197.516 136.055C197.516 131.216 198.85 127.436 201.519 124.716C204.187 121.996 207.792 120.635 212.334 120.635C216.668 120.635 220.046 121.958 222.468 124.603C224.91 127.248 226.13 130.915 226.13 135.605C226.13 140.201 224.815 143.887 222.184 146.664C219.573 149.421 216.062 150.8 211.653 150.8ZM211.993 124.519C209.003 124.519 206.638 125.532 204.897 127.558C203.156 129.565 202.285 132.341 202.285 135.887C202.285 139.301 203.165 141.993 204.925 143.962C206.685 145.932 209.041 146.917 211.993 146.917C215.002 146.917 217.311 145.951 218.92 144.019C220.547 142.086 221.361 139.338 221.361 135.774C221.361 132.172 220.547 129.396 218.92 127.445C217.311 125.494 215.002 124.519 211.993 124.519ZM287.616 148.802C285.383 150.134 282.734 150.8 279.668 150.8C275.523 150.8 272.174 149.468 269.619 146.804C267.083 144.122 265.815 140.651 265.815 136.393C265.815 131.647 267.187 127.839 269.931 124.969C272.675 122.08 276.337 120.635 280.917 120.635C283.472 120.635 285.724 121.104 287.673 122.042V126.77C285.516 125.269 283.207 124.519 280.747 124.519C277.775 124.519 275.334 125.578 273.423 127.698C271.53 129.799 270.584 132.566 270.584 135.999C270.584 139.376 271.474 142.04 273.252 143.99C275.05 145.941 277.454 146.917 280.463 146.917C282.999 146.917 285.383 146.082 287.616 144.413V148.802ZM310.808 150.125H315.464V131.384C315.464 124.218 312.048 120.635 305.216 120.635C301.488 120.635 298.195 121.536 295.337 123.337V128.064C298.157 125.7 301.318 124.519 304.819 124.519C308.812 124.519 310.808 126.967 310.808 131.863L302.094 133.073C295.697 133.954 292.499 137.087 292.499 142.471C292.499 144.985 293.312 147.001 294.94 148.521C296.586 150.04 298.857 150.8 301.753 150.8C305.689 150.8 308.67 149.074 310.695 145.623H310.808V150.125ZM303.797 136.506L310.808 135.549V138.419C310.808 140.876 310.051 142.912 308.537 144.525C307.042 146.12 305.14 146.917 302.832 146.917C301.147 146.917 299.794 146.476 298.772 145.594C297.769 144.694 297.268 143.54 297.268 142.133C297.268 140.201 297.817 138.86 298.914 138.11C300.012 137.34 301.639 136.806 303.797 136.506ZM322.475 149.084V144.131C325.011 145.988 327.803 146.917 330.849 146.917C334.937 146.917 336.981 145.566 336.981 142.865C336.981 142.096 336.801 141.449 336.442 140.923C336.101 140.379 335.628 139.901 335.022 139.488C334.436 139.076 333.735 138.71 332.922 138.391C332.127 138.053 331.266 137.706 330.339 137.35C329.052 136.843 327.916 136.337 326.932 135.83C325.967 135.305 325.153 134.724 324.491 134.086C323.847 133.429 323.355 132.688 323.015 131.863C322.693 131.037 322.532 130.071 322.532 128.965C322.532 127.614 322.844 126.423 323.469 125.391C324.093 124.34 324.926 123.468 325.967 122.774C327.008 122.061 328.191 121.527 329.515 121.17C330.859 120.814 332.24 120.635 333.66 120.635C336.177 120.635 338.429 121.067 340.416 121.93V126.601C338.277 125.213 335.817 124.519 333.035 124.519C332.165 124.519 331.379 124.622 330.679 124.828C329.979 125.016 329.373 125.288 328.862 125.644C328.37 126.001 327.982 126.432 327.699 126.939C327.434 127.426 327.301 127.97 327.301 128.571C327.301 129.321 327.434 129.949 327.699 130.456C327.982 130.962 328.389 131.413 328.919 131.807C329.449 132.2 330.092 132.557 330.849 132.876C331.606 133.195 332.468 133.542 333.433 133.917C334.72 134.405 335.874 134.911 336.896 135.436C337.918 135.943 338.788 136.524 339.508 137.181C340.227 137.819 340.775 138.56 341.154 139.404C341.551 140.248 341.75 141.252 341.75 142.415C341.75 143.84 341.428 145.079 340.785 146.129C340.16 147.18 339.318 148.052 338.258 148.746C337.199 149.44 335.978 149.956 334.597 150.294C333.215 150.631 331.767 150.8 330.253 150.8C327.263 150.8 324.671 150.228 322.475 149.084ZM358.073 150.744C359.87 150.744 361.318 150.444 362.416 149.843V145.904C361.564 146.542 360.552 146.861 359.378 146.861C357.845 146.861 356.748 146.448 356.085 145.623C355.423 144.797 355.092 143.418 355.092 141.486V125.25H362.416V121.311H355.092V112.785L350.436 114.276V121.311H345.44V125.25H350.436V142.302C350.436 147.93 352.982 150.744 358.073 150.744ZM366.872 149.084V144.131C369.408 145.988 372.2 146.917 375.247 146.917C379.334 146.917 381.378 145.566 381.378 142.865C381.378 142.096 381.198 141.449 380.839 140.923C380.498 140.379 380.025 139.901 379.419 139.488C378.833 139.076 378.133 138.71 377.319 138.391C376.524 138.053 375.663 137.706 374.736 137.35C373.449 136.843 372.313 136.337 371.329 135.83C370.364 135.305 369.55 134.724 368.888 134.086C368.245 133.429 367.752 132.688 367.412 131.863C367.09 131.037 366.929 130.071 366.929 128.965C366.929 127.614 367.241 126.423 367.866 125.391C368.491 124.34 369.323 123.468 370.364 122.774C371.405 122.061 372.588 121.527 373.912 121.17C375.256 120.814 376.638 120.635 378.057 120.635C380.574 120.635 382.826 121.067 384.813 121.93V126.601C382.675 125.213 380.214 124.519 377.432 124.519C376.562 124.519 375.776 124.622 375.076 124.828C374.376 125.016 373.77 125.288 373.26 125.644C372.767 126.001 372.38 126.432 372.096 126.939C371.831 127.426 371.698 127.97 371.698 128.571C371.698 129.321 371.831 129.949 372.096 130.456C372.38 130.962 372.786 131.413 373.316 131.807C373.846 132.2 374.49 132.557 375.247 132.876C376.004 133.195 376.865 133.542 377.83 133.917C379.117 134.405 380.271 134.911 381.293 135.436C382.315 135.943 383.185 136.524 383.905 137.181C384.624 137.819 385.173 138.56 385.551 139.404C385.948 140.248 386.147 141.252 386.147 142.415C386.147 143.84 385.825 145.079 385.182 146.129C384.558 147.18 383.715 148.052 382.656 148.746C381.596 149.44 380.375 149.956 378.994 150.294C377.612 150.631 376.164 150.8 374.65 150.8C371.66 150.8 369.068 150.228 366.872 149.084Z" fill="white"/>
</svg>
