<svg width="90" height="90" viewBox="0 0 90 90" fill="none" xmlns="http://www.w3.org/2000/svg">
<path d="M25.4204 65.0155C25.4204 67.0036 27.0059 68.6263 28.9565 68.6263H32.999V78.8556C32.999 81.4469 35.0327 83.5625 37.5313 83.5625C40.0381 83.5625 42.0635 81.4554 42.0635 78.8556V68.6178H49.1191V78.8471C49.1191 81.4384 51.1528 83.554 53.6514 83.554C56.1582 83.554 58.1836 81.4469 58.1836 78.8471V68.6178H62.2261C64.1768 68.6178 65.7622 66.9951 65.7622 65.007V31.4304H25.4204V65.0155ZM55.0625 14.0304L58.7896 8.50798C59.0054 8.18513 58.9556 7.75183 58.665 7.53942C58.3745 7.33552 57.9595 7.43747 57.7437 7.76032L53.8755 13.5037C51.3272 12.4757 48.4883 11.9064 45.5083 11.9064C42.5283 11.9064 39.6895 12.4757 37.1411 13.5037L33.273 7.76882C33.0571 7.44597 32.6421 7.33552 32.3516 7.54792C32.061 7.75183 32.0112 8.17663 32.2271 8.51647L35.9541 14.0389C30.0273 16.8596 25.877 22.2037 25.3457 28.4483H65.6875C65.1397 22.1952 60.981 16.8511 55.0625 14.0304ZM36.9917 22.7389C36.5501 22.7389 36.1184 22.6049 35.7512 22.3538C35.384 22.1026 35.0978 21.7457 34.9288 21.3281C34.7598 20.9105 34.7155 20.4509 34.8017 20.0076C34.8879 19.5643 35.1005 19.1571 35.4128 18.8374C35.7251 18.5178 36.1229 18.3001 36.5561 18.212C36.9892 18.1238 37.4382 18.169 37.8462 18.342C38.2542 18.515 38.6029 18.8079 38.8483 19.1838C39.0937 19.5596 39.2246 20.0015 39.2246 20.4535C39.2231 21.0591 38.9873 21.6395 38.5689 22.0678C38.1505 22.4961 37.5834 22.7374 36.9917 22.7389ZM54.2905 22.7389C53.8489 22.7389 53.4172 22.6049 53.05 22.3538C52.6828 22.1026 52.3966 21.7457 52.2276 21.3281C52.0586 20.9105 52.0144 20.4509 52.1005 20.0076C52.1867 19.5643 52.3993 19.1571 52.7116 18.8374C53.0239 18.5178 53.4218 18.3001 53.8549 18.212C54.2881 18.1238 54.737 18.169 55.145 18.342C55.553 18.515 55.9018 18.8079 56.1471 19.1838C56.3925 19.5596 56.5234 20.0015 56.5234 20.4535C56.5219 21.0591 56.2862 21.6395 55.8677 22.0678C55.4493 22.4961 54.8823 22.7374 54.2905 22.7389ZM72.8345 31.2945C70.3276 31.2945 68.3022 33.4015 68.3022 36.0013V54.3869C68.3022 56.9782 70.3359 59.0937 72.8345 59.0937C75.3413 59.0937 77.3667 56.9867 77.3667 54.3869V35.9928C77.375 33.393 75.3496 31.2945 72.8345 31.2945ZM18.1655 31.2945C15.6587 31.2945 13.6333 33.4015 13.6333 36.0013V54.3869C13.6333 56.9782 15.667 59.0937 18.1655 59.0937C20.6724 59.0937 22.6978 56.9867 22.6978 54.3869V35.9928C22.6978 33.393 20.6641 31.2945 18.1655 31.2945Z" fill="#3B3A39"/>
</svg>
