<svg width="90" height="90" viewBox="0 0 90 90" fill="none" xmlns="http://www.w3.org/2000/svg">
<path d="M65.934 47.0749C65.8984 41.0142 68.6444 36.4464 74.1897 33.0783C71.0883 28.635 66.3961 26.1911 60.2109 25.7201C54.3546 25.258 47.9473 29.1326 45.6012 29.1326C43.1218 29.1326 37.4521 25.8801 32.9909 25.8801C23.7843 26.0223 14 33.2205 14 47.8658C14 52.1937 14.7909 56.6637 16.3728 61.267C18.4878 67.3277 26.1126 82.1774 34.0662 81.9375C38.2252 81.8398 41.1667 78.9871 46.5787 78.9871C51.8308 78.9871 54.5501 81.9375 59.189 81.9375C67.2137 81.822 74.1098 68.3231 76.1182 62.2445C65.3563 57.1702 65.934 47.3859 65.934 47.0749ZM56.594 19.9704C61.0996 14.6206 60.6908 9.75068 60.5575 8C56.5763 8.23105 51.9729 10.7104 49.3514 13.7586C46.4632 17.0289 44.7658 21.0724 45.1302 25.6313C49.4313 25.9601 53.3593 23.7473 56.594 19.9704Z" fill="#3B3A39"/>
</svg>
