<svg width="90" height="90" viewBox="0 0 90 90" fill="none" xmlns="http://www.w3.org/2000/svg">
<path fill-rule="evenodd" clip-rule="evenodd" d="M12 33V66C12 70.4183 15.5817 74 20 74H71C75.4183 74 79 70.4183 79 66V33H12ZM8 25C8 18.3726 13.3726 13 20 13H71C77.6274 13 83 18.3726 83 25V66C83 72.6274 77.6274 78 71 78H20C13.3726 78 8 72.6274 8 66V25ZM21 24C21 25.6569 19.6569 27 18 27C16.3431 27 15 25.6569 15 24C15 22.3431 16.3431 21 18 21C19.6569 21 21 22.3431 21 24ZM30 24C30 25.6569 28.6569 27 27 27C25.3431 27 24 25.6569 24 24C24 22.3431 25.3431 21 27 21C28.6569 21 30 22.3431 30 24ZM36 27C37.6569 27 39 25.6569 39 24C39 22.3431 37.6569 21 36 21C34.3431 21 33 22.3431 33 24C33 25.6569 34.3431 27 36 27Z" fill="#3B3A39"/>
</svg>
