<svg width="272" height="66" viewBox="0 0 272 66" fill="none" xmlns="http://www.w3.org/2000/svg">
<path fill-rule="evenodd" clip-rule="evenodd" d="M111.522 49.8666H105.717L90.4251 25.0725C90.0382 24.4452 89.718 23.7942 89.4652 23.1199H89.3311C89.4502 23.8415 89.5098 25.3862 89.5098 27.754V49.8666H84.375V16.1333H90.5589L105.338 40.3394C105.963 41.3433 106.365 42.0332 106.543 42.4095H106.633C106.484 41.5158 106.409 40.0024 106.409 37.8693V16.1333H111.522V49.8666ZM75.181 50.6C74.2703 50.6 73.4961 50.2823 72.8585 49.6467C72.221 48.9948 71.9022 48.2207 71.9022 47.3245C71.9022 46.4117 72.221 45.6297 72.8585 44.9778C73.4961 44.3259 74.2703 44 75.181 44C76.107 44 76.8888 44.3259 77.5263 44.9778C78.1791 45.6297 78.5054 46.4117 78.5054 47.3245C78.5054 48.2207 78.1791 48.9948 77.5263 49.6467C76.8888 50.2823 76.107 50.6 75.181 50.6ZM118.859 49.8666H137.201V45.1383H124.282V35.1642H135.515V30.4358H124.282V20.8853H136.472V16.1333H118.859V49.8666ZM163.614 20.8853H154.212V49.8666H148.781V20.8853H139.402V16.1333H163.614V20.8853ZM210.856 47.8462H210.748C209.825 49.1932 208.444 49.8666 206.606 49.8666C204.881 49.8666 203.537 49.2738 202.574 48.0882C201.619 46.9026 201.141 45.2169 201.141 43.0312C201.141 40.8455 201.623 39.1477 202.586 37.9379C203.549 36.7281 204.889 36.1231 206.606 36.1231C208.396 36.1231 209.768 36.7764 210.723 38.083H210.88L210.796 37.1273L210.748 36.1957V30.8H212.746V49.6247H211.121L210.856 47.8462ZM206.859 48.185C208.224 48.185 209.211 47.814 209.821 47.072C210.439 46.3219 210.748 45.1161 210.748 43.4546V43.0312C210.748 41.1519 210.435 39.8131 209.809 39.0146C209.191 38.2081 208.2 37.8048 206.835 37.8048C205.663 37.8048 204.765 38.2645 204.139 39.184C203.521 40.0954 203.212 41.3858 203.212 43.0554C203.212 44.7491 203.521 46.0275 204.139 46.8905C204.757 47.7535 205.663 48.185 206.859 48.185ZM181.748 41.2286C182.968 40.2607 183.578 38.8815 183.578 37.091C183.578 33.6551 181.379 31.9372 176.981 31.9372H172.418V49.6247H174.465V42.6682H176.535C178.799 42.6682 180.536 42.1884 181.748 41.2286ZM176.307 40.9019H174.465V33.7156H176.752C178.365 33.7156 179.553 34.0019 180.315 34.5746C181.078 35.1472 181.459 36.0183 181.459 37.1878C181.459 38.4863 181.054 39.43 180.243 40.0187C179.433 40.6075 178.12 40.9019 176.307 40.9019ZM196.735 48.0519C197.819 46.834 198.36 45.1443 198.36 42.9828C198.36 40.8777 197.815 39.2082 196.723 37.9742C195.64 36.7402 194.175 36.1231 192.329 36.1231C190.419 36.1231 188.927 36.7281 187.851 37.9379C186.776 39.1396 186.238 40.8213 186.238 42.9828C186.238 44.3781 186.487 45.596 186.984 46.6364C187.482 47.6769 188.188 48.4753 189.103 49.0319C190.018 49.5884 191.065 49.8666 192.245 49.8666C194.155 49.8666 195.652 49.2617 196.735 48.0519ZM189.32 46.8542C188.646 45.967 188.309 44.6765 188.309 42.9828C188.309 41.2729 188.642 39.9865 189.308 39.1235C189.974 38.2605 190.961 37.829 192.269 37.829C193.593 37.829 194.593 38.2686 195.267 39.1477C195.949 40.0187 196.29 41.2971 196.29 42.9828C196.29 44.6846 195.949 45.9791 195.267 46.8663C194.593 47.7454 193.601 48.185 192.293 48.185C190.985 48.185 189.994 47.7414 189.32 46.8542ZM217.826 48.1003C218.877 49.2779 220.358 49.8666 222.268 49.8666C223.608 49.8666 224.72 49.6368 225.602 49.177V47.3986C224.447 47.8745 223.319 48.1124 222.22 48.1124C220.936 48.1124 219.965 47.6769 219.307 46.8058C218.657 45.9347 218.332 44.6846 218.332 43.0554C218.332 39.6195 219.672 37.9016 222.352 37.9016C222.753 37.9016 223.215 37.9621 223.737 38.083C224.258 38.196 224.74 38.3411 225.181 38.5186L225.795 36.8127C225.434 36.6272 224.936 36.4659 224.302 36.3288C223.668 36.1917 223.034 36.1231 222.4 36.1231C220.434 36.1231 218.917 36.7281 217.85 37.9379C216.791 39.1477 216.261 40.8616 216.261 43.0796C216.261 45.2411 216.783 46.9147 217.826 48.1003ZM236.858 49.6247L236.461 47.7374H236.364C235.706 48.5681 235.048 49.1327 234.39 49.4311C233.74 49.7215 232.926 49.8666 231.947 49.8666C230.638 49.8666 229.611 49.5279 228.865 48.8504C228.126 48.1729 227.757 47.2091 227.757 45.9589C227.757 43.2812 229.888 41.8778 234.149 41.7488L236.389 41.6762V40.8535C236.389 39.8131 236.164 39.0469 235.714 38.5549C235.273 38.0548 234.563 37.8048 233.584 37.8048C232.484 37.8048 231.24 38.1435 229.852 38.821L229.238 37.2846C229.888 36.9297 230.598 36.6514 231.369 36.4498C232.147 36.2482 232.926 36.1473 233.704 36.1473C235.277 36.1473 236.441 36.4982 237.195 37.1999C237.958 37.9016 238.339 39.0267 238.339 40.5753V49.6247H236.858ZM232.344 48.2092C233.588 48.2092 234.563 47.8664 235.269 47.1808C235.983 46.4953 236.34 45.5355 236.34 44.3015V43.1038L234.342 43.1885C232.753 43.2449 231.605 43.4949 230.899 43.9385C230.201 44.3741 229.852 45.0556 229.852 45.9831C229.852 46.709 230.069 47.2615 230.502 47.6406C230.943 48.0197 231.557 48.2092 232.344 48.2092ZM249.606 48.8625C250.521 48.1931 250.979 47.2413 250.979 46.0073C250.979 45.1282 250.702 44.3983 250.148 43.8176C249.602 43.2369 248.547 42.6602 246.982 42.0875C245.842 41.6601 245.072 41.3334 244.671 41.1076C244.269 40.8818 243.977 40.6438 243.792 40.3938C243.615 40.1438 243.527 39.8413 243.527 39.4864C243.527 38.9622 243.768 38.5508 244.249 38.2524C244.731 37.954 245.445 37.8048 246.392 37.8048C247.468 37.8048 248.667 38.079 249.992 38.6275L250.702 36.9942C249.345 36.4135 247.957 36.1231 246.537 36.1231C245.012 36.1231 243.812 36.4377 242.937 37.0668C242.062 37.6878 241.625 38.5387 241.625 39.6195C241.625 40.2244 241.749 40.7446 241.998 41.1802C242.255 41.6157 242.64 42.0069 243.154 42.3537C243.676 42.6924 244.55 43.0917 245.778 43.5514C247.07 44.0515 247.937 44.487 248.378 44.858C248.828 45.221 249.053 45.6605 249.053 46.1767C249.053 46.8623 248.772 47.3744 248.21 47.7132C247.648 48.0438 246.846 48.2092 245.802 48.2092C245.128 48.2092 244.426 48.1164 243.696 47.9309C242.973 47.7454 242.295 47.4914 241.661 47.1688V49.0319C242.64 49.5884 244.005 49.8666 245.754 49.8666C247.407 49.8666 248.691 49.5319 249.606 48.8625ZM258.502 48.2092C258.856 48.2092 259.197 48.185 259.526 48.1366C259.855 48.0801 260.116 48.0237 260.308 47.9672V49.5037C260.091 49.6085 259.77 49.6932 259.345 49.7578C258.928 49.8303 258.551 49.8666 258.214 49.8666C255.661 49.8666 254.385 48.5157 254.385 45.8138V37.9258H252.495V36.9579L254.385 36.1231L255.228 33.2922H256.384V36.3651H260.212V37.9258H256.384V45.7291C256.384 46.5275 256.572 47.1405 256.95 47.568C257.327 47.9955 257.844 48.2092 258.502 48.2092ZM270.095 48.8625C271.01 48.1931 271.467 47.2413 271.467 46.0073C271.467 45.1282 271.191 44.3983 270.637 43.8176C270.091 43.2369 269.036 42.6602 267.471 42.0875C266.331 41.6601 265.561 41.3334 265.159 41.1076C264.758 40.8818 264.465 40.6438 264.281 40.3938C264.104 40.1438 264.016 39.8413 264.016 39.4864C264.016 38.9622 264.257 38.5508 264.738 38.2524C265.22 37.954 265.934 37.8048 266.881 37.8048C267.956 37.8048 269.156 38.079 270.48 38.6275L271.191 36.9942C269.834 36.4135 268.446 36.1231 267.025 36.1231C265.501 36.1231 264.301 36.4377 263.426 37.0668C262.551 37.6878 262.114 38.5387 262.114 39.6195C262.114 40.2244 262.238 40.7446 262.487 41.1802C262.744 41.6157 263.129 42.0069 263.643 42.3537C264.164 42.6924 265.039 43.0917 266.267 43.5514C267.559 44.0515 268.426 44.487 268.867 44.858C269.317 45.221 269.541 45.6605 269.541 46.1767C269.541 46.8623 269.26 47.3744 268.699 47.7132C268.137 48.0438 267.334 48.2092 266.291 48.2092C265.617 48.2092 264.915 48.1164 264.184 47.9309C263.462 47.7454 262.784 47.4914 262.15 47.1688V49.0319C263.129 49.5884 264.493 49.8666 266.243 49.8666C267.896 49.8666 269.18 49.5319 270.095 48.8625Z" fill="white"/>
<path d="M0.788715 15.3055C-0.223641 14.3568 -0.279805 12.7616 0.726801 11.8068C4.44432 8.28083 8.76755 5.44241 13.4958 3.43174C18.9958 1.09287 24.9232 -0.0746291 30.8998 0.00369548C36.8764 0.08202 42.7711 1.40445 48.2079 3.88665C52.8818 6.02054 57.1291 8.97127 60.7528 12.5935C61.734 13.5743 61.6361 15.1675 60.5992 16.0893C59.5623 17.0111 57.9797 16.9116 56.9909 15.9384C53.8365 12.8336 50.1586 10.2992 46.12 8.45539C41.3183 6.26318 36.1123 5.09525 30.8339 5.02607C25.5555 4.9569 20.3207 5.98801 15.4632 8.05363C11.3776 9.79101 7.63443 12.2282 4.39965 15.2492C3.38569 16.1961 1.80107 16.2541 0.788715 15.3055Z" fill="white"/>
<path d="M8.62911 22.1312C7.61558 21.18 7.55922 19.5795 8.58616 18.6428C11.298 16.1692 14.4126 14.1664 17.8015 12.7241C21.9639 10.9526 26.4493 10.0654 30.9729 10.1186C35.4966 10.1718 39.9598 11.1643 44.0793 13.0331C47.4334 14.5547 50.5 16.6302 53.1528 19.1669C54.1574 20.1275 54.0634 21.7262 53.0278 22.6533C51.9921 23.5805 50.408 23.4832 49.3899 22.5368C47.212 20.5121 44.7169 18.8487 41.9985 17.6155C38.5144 16.0349 34.7396 15.1955 30.9137 15.1505C27.0878 15.1055 23.2943 15.8559 19.774 17.3541C17.0273 18.5231 14.4936 20.1274 12.2687 22.1002C11.2287 23.0224 9.64264 23.0824 8.62911 22.1312Z" fill="white"/>
<path d="M38.4327 41.6125C38.4327 40.4197 39.4002 39.4528 40.5935 39.4528H40.8265C42.0198 39.4528 42.9872 40.4197 42.9872 41.6125V44.8801C42.9872 46.0729 42.0198 47.0399 40.8265 47.0399H40.5935C39.4002 47.0399 38.4327 46.0729 38.4327 44.8801V41.6125Z" fill="white"/>
<path d="M17.6845 41.6128C17.6845 40.4201 18.6519 39.4531 19.8453 39.4531H20.0782C21.2716 39.4531 22.239 40.4201 22.239 41.6128V44.8805C22.239 46.0733 21.2716 47.0402 20.0782 47.0402H19.8453C18.6519 47.0402 17.6845 46.0733 17.6845 44.8805V41.6128Z" fill="white"/>
<path fill-rule="evenodd" clip-rule="evenodd" d="M30.3359 65.7543C42.9128 65.7543 53.1083 55.5638 53.1083 42.9931C53.1083 30.4225 42.9128 20.2319 30.3359 20.2319C17.759 20.2319 7.56341 30.4225 7.56341 42.9931C7.56341 55.5638 17.759 65.7543 30.3359 65.7543ZM20.0666 35.4061C15.9561 35.4061 12.624 38.7366 12.624 42.8451V43.6471C12.624 47.7555 15.9561 51.086 20.0666 51.086H25.6936L28.8608 47.29C29.6287 46.3698 31.0431 46.3698 31.8109 47.29L34.9782 51.086H40.6052C44.7156 51.086 48.0478 47.7555 48.0478 43.6471V42.8451C48.0478 38.7366 44.7156 35.4061 40.6052 35.4061H20.0666Z" fill="white"/>
</svg>
