<svg width="180" height="70" viewBox="0 0 180 70" fill="none" xmlns="http://www.w3.org/2000/svg">
<path fill-rule="evenodd" clip-rule="evenodd" d="M0.837654 16.2331C-0.237518 15.227 -0.297167 13.535 0.771898 12.5224C4.72009 8.7827 9.31156 5.77226 14.3332 3.63973C20.1745 1.15911 26.4697 -0.0791521 32.8171 0.00391945C39.1646 0.086991 45.425 1.48957 51.1992 4.12221C56.1631 6.38542 60.6739 9.51499 64.5225 13.3567C65.5646 14.397 65.4605 16.0868 64.3593 17.0644C63.258 18.0421 61.5773 17.9365 60.5272 16.9043C57.177 13.6114 53.2709 10.9234 48.9817 8.96784C43.8821 6.64277 38.353 5.40405 32.7471 5.33068C27.1412 5.25732 21.5815 6.35092 16.4227 8.54173C12.0836 10.3844 8.10814 12.9693 4.67264 16.1733C3.59577 17.1777 1.91283 17.2393 0.837654 16.2331ZM9.16454 23.4725C8.08812 22.4636 8.02826 20.7661 9.11893 19.7726C11.999 17.1491 15.3069 15.025 18.9061 13.4952C23.3268 11.6164 28.0904 10.6754 32.8948 10.7318C37.6991 10.7882 42.4393 11.8409 46.8144 13.823C50.3766 15.4368 53.6335 17.6381 56.4509 20.3286C57.5179 21.3474 57.418 23.043 56.3181 24.0263C55.2182 25.0096 53.5357 24.9065 52.4545 23.9027C50.1415 21.7553 47.4915 19.9911 44.6044 18.6831C40.9042 17.0067 36.8952 16.1164 32.8319 16.0687C28.7686 16.021 24.7397 16.8169 21.0009 18.4059C18.0838 19.6457 15.393 21.3472 13.03 23.4397C11.9254 24.4177 10.241 24.4813 9.16454 23.4725ZM43.1123 41.8439C41.8449 41.8439 40.8175 42.8694 40.8175 44.1345V47.6002C40.8175 48.8652 41.8449 49.8908 43.1123 49.8908H43.3597C44.6271 49.8908 45.6546 48.8652 45.6546 47.6002V44.1345C45.6546 42.8694 44.6271 41.8439 43.3597 41.8439H43.1123ZM18.7818 44.1348C18.7818 42.8698 19.8093 41.8442 21.0767 41.8442H21.3241C22.5915 41.8442 23.6189 42.8698 23.6189 44.1348V47.6006C23.6189 48.8656 22.5915 49.8911 21.3241 49.8911H21.0767C19.8092 49.8911 18.7818 48.8656 18.7818 47.6006V44.1348ZM56.4037 45.5988C56.4037 58.9313 45.5754 69.7395 32.2182 69.7395C18.8609 69.7395 8.03271 58.9313 8.03271 45.5988C8.03271 32.2662 18.8609 21.4581 32.2182 21.4581C45.5754 21.4581 56.4037 32.2662 56.4037 45.5988ZM13.4073 45.4417C13.4073 41.0843 16.9462 37.5519 21.3117 37.5519H43.1247C47.4902 37.5519 51.0291 41.0843 51.0291 45.4417V46.2924C51.0291 50.6498 47.4902 54.1822 43.1247 54.1822H37.1486L33.7848 50.1561C32.9693 49.18 31.4671 49.18 30.6516 50.1561L27.2878 54.1822H21.3117C16.9462 54.1822 13.4073 50.6498 13.4073 46.2924V45.4417ZM112.277 38.1111H118.442V2.33333H113.012V25.3867C113.012 27.649 113.091 29.2541 113.249 30.2021H113.154C112.965 29.803 112.538 29.0712 111.874 28.0064L96.178 2.33333H89.6104V38.1111H95.0638V14.6583C95.0638 12.147 95.0005 10.5087 94.8741 9.74338H95.0164C95.285 10.4585 95.625 11.1489 96.0359 11.8143L112.277 38.1111ZM77.3793 37.8778C78.0564 38.552 78.8786 38.8889 79.8459 38.8889C80.8294 38.8889 81.6596 38.552 82.3368 37.8778C83.03 37.1864 83.3766 36.3654 83.3766 35.4149C83.3766 34.4468 83.03 33.6174 82.3368 32.926C81.6596 32.2346 80.8294 31.8889 79.8459 31.8889C78.8786 31.8889 78.0564 32.2346 77.3793 32.926C76.7022 33.6174 76.3636 34.4468 76.3636 35.4149C76.3636 36.3654 76.7022 37.1864 77.3793 37.8778ZM145.714 38.1111H126.234V2.33333H144.94V7.37329H131.993V17.5027H143.924V22.5176H131.993V33.0962H145.714V38.1111ZM163.781 7.37329H173.766V2.33333H148.052V7.37329H158.013V38.1111H163.781V7.37329ZM113.918 65.5882H114.025L114.284 67.3188H115.876V49H113.918V54.2508L113.966 55.1573L114.048 56.0873H113.895C112.959 54.8159 111.615 54.1801 109.861 54.1801C108.178 54.1801 106.865 54.7688 105.922 55.9461C104.978 57.1234 104.506 58.7755 104.506 60.9025C104.506 63.0295 104.974 64.6699 105.91 65.8236C106.853 66.9774 108.17 67.5543 109.861 67.5543C111.662 67.5543 113.014 66.8989 113.918 65.5882ZM113.01 64.8347C112.413 65.5568 111.445 65.9178 110.109 65.9178C108.937 65.9178 108.049 65.4979 107.443 64.6581C106.838 63.8183 106.535 62.5743 106.535 60.9261C106.535 59.3014 106.838 58.0456 107.443 57.1587C108.056 56.2639 108.937 55.8166 110.085 55.8166C111.422 55.8166 112.393 56.209 112.998 56.9939C113.612 57.7709 113.918 59.0738 113.918 60.9025V61.3146C113.918 62.9314 113.616 64.1048 113.01 64.8347ZM87.2975 55.122C87.2975 56.8644 86.6999 58.2065 85.5046 59.1483C84.3173 60.0823 82.6149 60.5493 80.3975 60.5493H78.3688V67.3188H76.3636V50.1067H80.8339C85.1429 50.1067 87.2975 51.7784 87.2975 55.122ZM78.3688 58.8305H80.1734C81.9505 58.8305 83.2361 58.544 84.0303 57.971C84.8245 57.3981 85.2216 56.4798 85.2216 55.2161C85.2216 54.0781 84.8481 53.2304 84.1011 52.6732C83.354 52.1159 82.1903 51.8373 80.6098 51.8373H78.3688V58.8305ZM101.782 60.8554C101.782 62.9589 101.251 64.6031 100.189 65.7883C99.1277 66.9656 97.6612 67.5543 95.7897 67.5543C94.6339 67.5543 93.6077 67.2835 92.7113 66.7419C91.8149 66.2004 91.1229 65.4233 90.6354 64.4109C90.1479 63.3984 89.9041 62.2132 89.9041 60.8554C89.9041 58.752 90.431 57.1155 91.4846 55.9461C92.5383 54.7688 94.0009 54.1801 95.8723 54.1801C97.6809 54.1801 99.1159 54.7805 100.177 55.9814C101.247 57.1822 101.782 58.8069 101.782 60.8554ZM91.9328 60.8554C91.9328 62.5036 92.2631 63.7594 92.9236 64.6228C93.5841 65.4861 94.5552 65.9178 95.8369 65.9178C97.1186 65.9178 98.0897 65.4901 98.7503 64.6346C99.4186 63.7712 99.7528 62.5115 99.7528 60.8554C99.7528 59.215 99.4186 57.971 98.7503 57.1234C98.0897 56.2679 97.1108 55.8401 95.8133 55.8401C94.5316 55.8401 93.5645 56.26 92.9118 57.0998C92.2592 57.9396 91.9328 59.1915 91.9328 60.8554ZM125.206 67.5543C123.335 67.5543 121.884 66.9813 120.854 65.8354C119.832 64.6816 119.32 63.053 119.32 60.9496C119.32 58.7912 119.839 57.1234 120.877 55.9461C121.923 54.7688 123.409 54.1801 125.336 54.1801C125.957 54.1801 126.578 54.2468 127.199 54.3803C127.821 54.5137 128.308 54.6707 128.662 54.8512L128.06 56.5112C127.628 56.3385 127.156 56.1972 126.645 56.0873C126.134 55.9696 125.682 55.9108 125.289 55.9108C122.662 55.9108 121.349 57.5825 121.349 60.9261C121.349 62.5115 121.668 63.728 122.305 64.5757C122.949 65.4233 123.901 65.8472 125.159 65.8472C126.236 65.8472 127.341 65.6156 128.473 65.1526V66.8832C127.608 67.3306 126.519 67.5543 125.206 67.5543ZM139.112 65.4822L139.501 67.3188H140.952V58.5126C140.952 57.0056 140.579 55.9108 139.832 55.2279C139.093 54.5451 137.952 54.2037 136.411 54.2037C135.648 54.2037 134.886 54.3018 134.123 54.498C133.368 54.6942 132.672 54.965 132.035 55.3103L132.637 56.8055C133.997 56.1462 135.216 55.8166 136.293 55.8166C137.253 55.8166 137.948 56.0599 138.381 56.5465C138.821 57.0253 139.041 57.7709 139.041 58.7834V59.5839L136.848 59.6546C132.672 59.7801 130.585 61.1458 130.585 63.7516C130.585 64.9681 130.946 65.906 131.67 66.5653C132.401 67.2246 133.407 67.5543 134.689 67.5543C135.648 67.5543 136.447 67.413 137.083 67.1304C137.728 66.84 138.373 66.2906 139.018 65.4822H139.112ZM137.945 64.9406C137.253 65.6078 136.297 65.9414 135.078 65.9414C134.308 65.9414 133.706 65.7569 133.274 65.388C132.849 65.0191 132.637 64.4815 132.637 63.7751C132.637 62.8725 132.979 62.2093 133.663 61.7855C134.355 61.3538 135.479 61.1105 137.036 61.0556L138.994 60.9731V62.1387C138.994 63.3395 138.644 64.2735 137.945 64.9406ZM153.337 63.7987C153.337 64.9995 152.889 65.9257 151.992 66.5771C151.096 67.2285 149.838 67.5543 148.218 67.5543C146.504 67.5543 145.167 67.2835 144.208 66.7419V64.9289C144.829 65.2428 145.493 65.4901 146.201 65.6706C146.916 65.8511 147.604 65.9414 148.265 65.9414C149.287 65.9414 150.074 65.7805 150.624 65.4587C151.174 65.129 151.45 64.6306 151.45 63.9635C151.45 63.4612 151.229 63.0334 150.789 62.6802C150.357 62.3192 149.507 61.8954 148.241 61.4087C147.038 60.9614 146.181 60.5729 145.67 60.2432C145.167 59.9057 144.789 59.5251 144.538 59.1012C144.294 58.6774 144.172 58.1712 144.172 57.5825C144.172 56.5308 144.601 55.7028 145.458 55.0984C146.315 54.4862 147.49 54.1801 148.984 54.1801C150.376 54.1801 151.737 54.4627 153.066 55.0278L152.37 56.6171C151.072 56.0834 149.897 55.8166 148.843 55.8166C147.915 55.8166 147.215 55.9618 146.743 56.2522C146.272 56.5426 146.036 56.9429 146.036 57.453C146.036 57.7984 146.122 58.0927 146.295 58.336C146.476 58.5793 146.763 58.8108 147.156 59.0306C147.549 59.2504 148.304 59.5682 149.421 59.9842C150.954 60.5415 151.988 61.1026 152.523 61.6678C153.066 62.2329 153.337 62.9432 153.337 63.7987ZM161.711 65.8707C161.389 65.9178 161.055 65.9414 160.709 65.9414C160.064 65.9414 159.557 65.7334 159.187 65.3174C158.817 64.9014 158.633 64.3049 158.633 63.5279V55.9343H162.383V54.4156H158.633V51.4252H157.5L156.675 54.1801L154.823 54.9925V55.9343H156.675V63.6103C156.675 66.2396 157.925 67.5543 160.426 67.5543C160.756 67.5543 161.125 67.5189 161.534 67.4483C161.951 67.3855 162.266 67.3031 162.478 67.2011V65.7059C162.289 65.7608 162.034 65.8158 161.711 65.8707ZM173.412 63.7987C173.412 64.9995 172.963 65.9257 172.067 66.5771C171.171 67.2285 169.912 67.5543 168.293 67.5543C166.578 67.5543 165.242 67.2835 164.282 66.7419V64.9289C164.904 65.2428 165.568 65.4901 166.276 65.6706C166.991 65.8511 167.679 65.9414 168.34 65.9414C169.362 65.9414 170.148 65.7805 170.699 65.4587C171.249 65.129 171.524 64.6306 171.524 63.9635C171.524 63.4612 171.304 63.0334 170.864 62.6802C170.431 62.3192 169.582 61.8954 168.316 61.4087C167.113 60.9614 166.256 60.5729 165.745 60.2432C165.242 59.9057 164.864 59.5251 164.613 59.1012C164.369 58.6774 164.247 58.1712 164.247 57.5825C164.247 56.5308 164.676 55.7028 165.533 55.0984C166.39 54.4862 167.565 54.1801 169.059 54.1801C170.451 54.1801 171.811 54.4627 173.14 55.0278L172.444 56.6171C171.147 56.0834 169.971 55.8166 168.918 55.8166C167.99 55.8166 167.29 55.9618 166.818 56.2522C166.347 56.5426 166.111 56.9429 166.111 57.453C166.111 57.7984 166.197 58.0927 166.37 58.336C166.551 58.5793 166.838 58.8108 167.231 59.0306C167.624 59.2504 168.379 59.5682 169.496 59.9842C171.029 60.5415 172.063 61.1026 172.598 61.6678C173.14 62.2329 173.412 62.9432 173.412 63.7987Z" fill="white"/>
</svg>
