<svg xmlns="http://www.w3.org/2000/svg" xmlns:xlink="http://www.w3.org/1999/xlink" width="119" height="50" viewBox="0 0 119 50">
    <defs>
        <path id="wx4u6mytja" d="M0.58 0.491L21.638 0.491 21.638 21.549 0.58 21.549z"/>
        <path id="sma301q1hc" d="M0.316 0.734L16.763 0.734 16.763 11.146 0.316 11.146z"/>
        <path id="txnb63blre" d="M0.316 0.012L16.898 0.012 16.898 10.551 0.316 10.551z"/>
        <path id="nzwjdzqgpg" d="M0 0.556L6.461 0.556 6.461 35.124 0 35.124z"/>
        <path id="92ulk76m6i" d="M0.271 0.576L3.179 0.576 3.179 5.184 0.271 5.184z"/>
        <path id="ln6p4oruck" d="M0.259 0.576L3.167 0.576 3.167 5.184 0.259 5.184z"/>
    </defs>
    <g fill="none" fill-rule="evenodd">
        <path fill="#58585B" d="M55.601 35.143c-1.784 0-3.23-1.446-3.23-3.231V3.806c0-1.784 1.446-3.23 3.23-3.23s3.23 1.446 3.23 3.23v28.106c0 1.785-1.446 3.23-3.23 3.23" style="mix-blend-mode:multiply"/>
        <path fill="#58585B" d="M69.622 7.037H55.601c-1.784 0-3.23-1.446-3.23-3.231S53.817.576 55.6.576h14.021c1.784 0 3.231 1.445 3.231 3.23s-1.447 3.23-3.23 3.23" style="mix-blend-mode:multiply"/>
        <path fill="#71BE44" d="M71.23 35.143H55.6c-1.783 0-3.23-1.446-3.23-3.231 0-1.784 1.447-3.23 3.23-3.23h15.63c1.784 0 3.23 1.446 3.23 3.23 0 1.785-1.446 3.23-3.23 3.23" style="mix-blend-mode:multiply"/>
        <path fill="#58585B" d="M69.622 20.311c-1.784 0-3.23-1.446-3.23-3.23 0-1.785 1.446-3.23 3.23-3.23 1.889 0 3.426-1.538 3.426-3.427C73.048 8.536 71.51 7 69.622 7c-1.784 0-3.23-1.446-3.23-3.231 0-1.784 1.446-3.23 3.23-3.23 5.451 0 9.887 4.434 9.887 9.886 0 5.452-4.436 9.887-9.887 9.887" style="mix-blend-mode:multiply"/>
        <path fill="#58585B" d="M71.23 35.143c-1.785 0-3.231-1.446-3.231-3.231 0-1.784 1.446-3.23 3.23-3.23 2.308 0 4.186-1.878 4.186-4.186s-1.878-4.185-4.186-4.185h-1.605c-1.784 0-3.23-1.445-3.231-3.229-.001-1.785 1.445-3.232 3.23-3.232h1.606c5.87 0 10.647 4.775 10.647 10.646 0 5.87-4.776 10.647-10.647 10.647M90.008 21.07c-1.784 0-3.23-1.445-3.23-3.23 0-9.83 7.997-17.828 17.828-17.828 1.783 0 3.23 1.446 3.23 3.23 0 1.785-1.447 3.23-3.23 3.23-6.269 0-11.368 5.1-11.368 11.368 0 1.785-1.446 3.23-3.23 3.23" style="mix-blend-mode:multiply"/>
        <g transform="translate(86.197 14.119)">
            <mask id="6ob1up291b" fill="#fff">
                <use xlink:href="#wx4u6mytja"/>
            </mask>
            <path fill="#58585B" d="M18.408 21.55C8.578 21.55.58 13.552.58 3.722c0-1.785 1.446-3.23 3.23-3.23 1.785 0 3.231 1.445 3.231 3.23 0 6.267 5.1 11.366 11.367 11.366 1.784 0 3.23 1.446 3.23 3.23 0 1.785-1.446 3.232-3.23 3.232" mask="url(#6ob1up291b)"/>
        </g>
        <g transform="translate(101.06 24.522)">
            <mask id="o4i3z735md" fill="#fff">
                <use xlink:href="#sma301q1hc"/>
            </mask>
            <path fill="#58585B" d="M3.547 11.146C1.762 11.146.316 9.7.316 7.916c0-1.785 1.446-3.23 3.23-3.23 2.9 0 5.662-1.093 7.776-3.076 1.3-1.222 3.346-1.157 4.566.145 1.221 1.3 1.157 3.345-.144 4.566-3.317 3.111-7.648 4.825-12.197 4.825" mask="url(#o4i3z735md)"/>
        </g>
        <g transform="translate(101.06)">
            <mask id="io4m9k5p9f" fill="#fff">
                <use xlink:href="#txnb63blre"/>
            </mask>
            <path fill="#71BE44" d="M13.667 10.551c-.806 0-1.613-.3-2.24-.903C9.3 7.601 6.5 6.473 3.547 6.473c-1.785 0-3.231-1.446-3.231-3.23 0-1.785 1.446-3.23 3.23-3.23 4.634 0 9.023 1.768 12.361 4.98 1.286 1.237 1.325 3.282.088 4.568-.634.659-1.48.99-2.328.99" mask="url(#io4m9k5p9f)"/>
        </g>
        <path fill="#58585B" d="M16.96 35.124c-1.784 0-3.23-1.446-3.23-3.231V3.787c0-1.784 1.446-3.23 3.23-3.23 1.785 0 3.231 1.446 3.231 3.23v28.106c0 1.785-1.446 3.23-3.23 3.23" style="mix-blend-mode:multiply"/>
        <mask id="2see7ecpqh" fill="#fff">
            <use xlink:href="#nzwjdzqgpg"/>
        </mask>
        <path fill="#71BE44" d="M3.23 35.124c-1.784 0-3.23-1.446-3.23-3.231V3.787C0 2.003 1.446.557 3.23.557c1.785 0 3.231 1.446 3.231 3.23v28.106c0 1.785-1.446 3.23-3.23 3.23" mask="url(#2see7ecpqh)"/>
        <path fill="#58585B" d="M29.69 7.018H16.96c-1.784 0-3.23-1.446-3.23-3.231 0-1.784 1.446-3.23 3.23-3.23h12.73c1.784 0 3.23 1.446 3.23 3.23 0 1.785-1.446 3.23-3.23 3.23M29.684 35.124H16.96c-1.785 0-3.231-1.446-3.231-3.231 0-1.784 1.446-3.23 3.23-3.23h12.724c1.784 0 3.23 1.446 3.23 3.23 0 1.785-1.446 3.23-3.23 3.23" style="mix-blend-mode:multiply"/>
        <path fill="#71BE44" d="M42.653 21.07c-1.784 0-3.23-1.445-3.23-3.23 0-6.271-4.144-10.823-9.853-10.823-1.785 0-3.231-1.446-3.231-3.23s1.446-3.23 3.23-3.23c9.301 0 16.315 7.43 16.315 17.283 0 1.785-1.447 3.23-3.231 3.23" style="mix-blend-mode:multiply"/>
        <path fill="#58585B" d="M29.57 35.124c-1.785 0-3.232-1.446-3.232-3.231 0-1.784 1.447-3.23 3.231-3.23 5.71 0 9.854-4.552 9.854-10.823 0-1.784 1.446-3.23 3.23-3.23s3.23 1.446 3.23 3.23c0 9.853-7.013 17.284-16.314 17.284" style="mix-blend-mode:multiply"/>
        <g>
            <path fill="#333" d="M2.122 4.63c.56 0 .791-.287.791-.773 0-.522-.25-.771-.797-.771h-.934V4.63h.94zM2.08 2.612c.505 0 .71-.311.71-.74 0-.442-.2-.742-.716-.742h-.891v1.482h.897zM2.216.638c.803 0 1.22.523 1.22 1.233 0 .517-.274.804-.498.947.268.137.63.423.63 1.04 0 .753-.48 1.263-1.327 1.263H.547V.638h1.67zM9.192.639c.024.075.05.155.05.242 0 .1-.019.194-.05.274H7.298V2.6H8.88c.025.076.05.163.05.25s-.019.18-.05.261H7.298v1.494h1.956c.025.081.05.162.05.25 0 .093-.019.18-.05.268h-2.59V.639h2.528z" transform="translate(.85 43.35)"/>
            <g transform="translate(.85 43.35) translate(11.848)">
                <mask id="0cwu4yrwkj" fill="#fff">
                    <use xlink:href="#92ulk76m6i"/>
                </mask>
                <path fill="#333" d="M1.79.576c.748 0 1.22.174 1.22.174 0 .181-.055.374-.173.499 0 0-.424-.137-.96-.137-.659 0-.977.255-.977.71 0 .479.536.59 1.115.777.579.2 1.164.468 1.164 1.284 0 .834-.541 1.3-1.563 1.3-.822 0-1.344-.261-1.344-.261-.007-.168.055-.36.148-.505 0 0 .585.194 1.165.194.642 0 .947-.243.947-.71 0-.442-.356-.597-.785-.734C1.1 2.948.272 2.793.272 1.853.272 1.087.776.576 1.79.576" mask="url(#0cwu4yrwkj)"/>
            </g>
            <path fill="#333" d="M20.715.639s.049.111.049.267c0 .162-.05.28-.05.28h-1.157v3.892s-.113.044-.318.044c-.224 0-.318-.044-.318-.044V1.187h-1.188s-.05-.106-.05-.274c0-.156.05-.274.05-.274h2.982zM23.83 5.078s-.112.044-.324.044c-.224 0-.323-.044-.323-.044v-.586s.1-.043.323-.043c.212 0 .324.043.324.043v.586zM28.573 4.63c.56 0 .79-.287.79-.773 0-.522-.249-.771-.796-.771h-.935V4.63h.94zm-.044-2.018c.505 0 .71-.311.71-.74 0-.442-.199-.742-.715-.742h-.892v1.482h.897zm.138-1.974c.803 0 1.22.523 1.22 1.233 0 .517-.274.804-.498.947.267.137.629.423.629 1.04 0 .753-.48 1.263-1.327 1.263h-1.693V.638h1.669zM33.749 2.73h.878c.486 0 .76-.286.76-.778 0-.498-.274-.784-.76-.784h-.878v1.563zM34.708.64c.815 0 1.338.53 1.338 1.313 0 .616-.33 1.084-.878 1.246l1.083 1.88s-.13.044-.373.044c-.23 0-.361-.044-.361-.044L34.483 3.26h-.734v1.818s-.106.044-.311.044c-.23 0-.324-.044-.324-.044V.638h1.594zM40.668 1.33s-.055.249-.162.56l-.572 1.576h1.482l-.567-1.576c-.112-.324-.162-.56-.162-.56h-.019zM40.7.638c.236 0 .374.045.374.045l1.562 4.395s-.112.043-.343.043c-.21 0-.31-.043-.31-.043l-.387-1.096h-1.842l-.393 1.096s-.105.043-.305.043c-.193 0-.292-.043-.292-.043L40.326.683s.156-.045.374-.045zM45.495.683s.107-.045.312-.045c.217 0 .323.045.323.045v4.395s-.112.043-.317.043c-.225 0-.318-.043-.318-.043V.683zM50.38 2.245c-.23-.405-.367-.803-.367-.803h-.025s.044.417.044 1.046v2.59s-.094.044-.3.044c-.199 0-.286-.044-.286-.044V.683s.131-.044.38-.044c.25 0 .374.044.374.044l1.55 2.807c.224.405.386.828.386.828h.019s-.044-.46-.044-1.04V.684s.093-.044.299-.044c.205 0 .286.044.286.044v4.395s-.118.044-.367.044-.38-.044-.38-.044l-1.568-2.833z" transform="translate(.85 43.35)"/>
            <g transform="translate(.85 43.35) translate(55.539)">
                <mask id="ongvh8s09l" fill="#fff">
                    <use xlink:href="#ln6p4oruck"/>
                </mask>
                <path fill="#333" d="M1.778.576c.747 0 1.22.174 1.22.174 0 .181-.056.374-.174.499 0 0-.423-.137-.958-.137-.66 0-.978.255-.978.71 0 .479.535.59 1.115.777.579.2 1.164.468 1.164 1.284 0 .834-.542 1.3-1.563 1.3-.822 0-1.345-.261-1.345-.261-.006-.168.056-.36.15-.505 0 0 .584.194 1.164.194.641 0 .946-.243.946-.71 0-.442-.355-.597-.785-.734C1.087 2.948.26 2.793.26 1.853.26 1.087.764.576 1.78.576" mask="url(#ongvh8s09l)"/>
            </g>
            <path fill="#333" d="M62.251 5.078s-.112.044-.323.044c-.225 0-.324-.044-.324-.044v-.586s.1-.043.324-.043c.211 0 .323.043.323.043v.586zM66.757 4.592c.729 0 1.195-.31 1.195-1.712 0-1.407-.466-1.712-1.195-1.712h-.703v3.424h.703zm.045-3.954c1.15 0 1.83.592 1.83 2.242s-.68 2.242-1.83 2.242h-1.384V.638h1.384zM74.286.639c.025.075.05.155.05.242 0 .1-.019.194-.05.274h-1.893V2.6h1.581c.026.076.05.163.05.25s-.019.18-.05.261h-1.581v1.494h1.955c.025.081.05.162.05.25 0 .093-.019.18-.05.268h-2.59V.639h2.528zM77.426.683s.107-.045.312-.045c.218 0 .323.045.323.045v3.89h1.862c.031.075.05.174.05.274 0 .1-.019.194-.05.274h-2.497V.683zM82.864.683s.106-.045.311-.045c.218 0 .323.045.323.045v4.395s-.112.043-.317.043c-.224 0-.317-.043-.317-.043V.683zM88.06 3.677c.138.411.2.74.2.74h.018s.056-.324.2-.74L89.51.69s.087-.05.292-.05c.2 0 .324.05.324.05l-1.506 4.39s-.15.042-.367.042c-.218 0-.368-.043-.368-.043l-1.5-4.383s.118-.057.348-.057c.212 0 .3.05.3.05l1.026 2.99zM95.533.639c.025.075.05.155.05.242 0 .1-.018.194-.05.274H93.64V2.6h1.582c.025.076.05.163.05.25s-.02.18-.05.261H93.64v1.494h1.956c.024.081.05.162.05.25 0 .093-.02.18-.05.268h-2.59V.639h2.527zM99.308 2.73h.879c.485 0 .76-.286.76-.778 0-.498-.275-.784-.76-.784h-.879v1.563zm.96-2.091c.815 0 1.338.53 1.338 1.313 0 .616-.33 1.084-.878 1.246l1.083 1.88s-.13.044-.373.044c-.23 0-.361-.044-.361-.044l-1.034-1.818h-.735v1.818s-.105.044-.31.044c-.23 0-.324-.044-.324-.044V.638h1.593zM107.305.639c.025.075.05.155.05.242 0 .1-.019.194-.05.274h-1.893V2.6h1.581c.026.076.05.163.05.25s-.019.18-.05.261h-1.581v1.494h1.955c.025.081.05.162.05.25 0 .093-.019.18-.05.268h-2.59V.639h2.528zM111.784 4.592c.728 0 1.195-.31 1.195-1.712 0-1.407-.467-1.712-1.195-1.712h-.704v3.424h.704zm.044-3.954c1.15 0 1.83.592 1.83 2.242s-.68 2.242-1.83 2.242h-1.383V.638h1.383zM117.146 5.078s-.112.044-.324.044c-.224 0-.323-.044-.323-.044v-.586s.099-.043.323-.043c.212 0 .324.043.324.043v.586z" transform="translate(.85 43.35)"/>
        </g>
    </g>
</svg>
