<svg width="325" height="69" viewBox="0 0 325 69" fill="none" xmlns="http://www.w3.org/2000/svg">
<path fill-rule="evenodd" clip-rule="evenodd" d="M324.969 31.1711V25.495H317.872V16.6708L317.633 16.7439L310.967 18.7696L310.836 18.8092V25.4954H300.314V21.7706C300.314 20.0362 300.705 18.709 301.474 17.8239C302.239 16.9493 303.332 16.5047 304.726 16.5047C305.728 16.5047 306.766 16.7392 307.81 17.2016L308.072 17.3178V11.34L307.949 11.2951C306.974 10.9473 305.649 10.7721 304.007 10.7721C301.937 10.7721 300.056 11.2195 298.416 12.1062C296.774 12.9942 295.483 14.2618 294.579 15.8734C293.678 17.4832 293.22 19.3425 293.22 21.4V25.495H288.278V31.1711H293.22V55.0836H300.314V31.1711H310.836V46.3671C310.836 52.6255 313.808 55.797 319.67 55.797C320.633 55.797 321.647 55.6849 322.682 55.4654C323.736 55.24 324.453 55.0149 324.876 54.7745L324.969 54.7195V48.9909L324.681 49.1805C324.296 49.4352 323.816 49.6435 323.254 49.7983C322.69 49.956 322.218 50.035 321.853 50.035C320.48 50.035 319.464 49.6675 318.833 48.9422C318.196 48.2104 317.872 46.9306 317.872 45.1404V31.1711H324.969ZM272.436 50.0359C269.861 50.0359 267.831 49.188 266.4 47.5176C264.961 45.8388 264.231 43.4453 264.231 40.4043C264.231 37.2669 264.961 34.8113 266.401 33.1028C267.832 31.4056 269.843 30.5442 272.378 30.5442C274.838 30.5442 276.796 31.3669 278.199 32.9907C279.608 34.623 280.324 37.0589 280.324 40.2329C280.324 43.446 279.651 45.914 278.324 47.565C277.007 49.2036 275.026 50.0359 272.436 50.0359ZM261.155 29.0315C263.937 26.2119 267.839 24.7822 272.751 24.7822C277.379 24.7822 281.049 26.1498 283.659 28.8476C286.267 31.5442 287.589 35.2983 287.589 40.0035C287.589 44.767 286.18 48.6325 283.4 51.4881C280.619 54.3467 276.795 55.7963 272.033 55.7963C267.463 55.7963 263.769 54.4207 261.055 51.705C258.341 48.9903 256.965 45.264 256.965 40.6313C256.965 35.7539 258.375 31.8515 261.155 29.0315ZM245.527 24.7822C242.185 24.7822 239.421 25.6312 237.31 27.305C235.185 28.9888 234.107 31.1971 234.107 33.8693C234.107 35.2584 234.34 36.4923 234.798 37.5388C235.258 38.5888 235.971 39.5133 236.918 40.2891C237.857 41.0588 239.308 41.8649 241.23 42.6851C242.846 43.3454 244.051 43.904 244.816 44.3442C245.564 44.7757 246.095 45.2094 246.395 45.6318C246.687 46.0452 246.834 46.6109 246.834 47.309C246.834 49.2969 245.335 50.2642 242.251 50.2642C241.107 50.2642 239.802 50.0269 238.373 49.5592C236.954 49.0985 235.614 48.424 234.401 47.5591L234.107 47.3493V54.1329L234.215 54.1828C235.219 54.643 236.484 55.0311 237.976 55.3364C239.465 55.6421 240.817 55.7976 241.993 55.7976C245.619 55.7976 248.539 54.9446 250.67 53.2608C252.814 51.5655 253.901 49.305 253.901 46.5404C253.901 44.5459 253.316 42.8356 252.162 41.4562C251.017 40.0881 249.03 38.832 246.257 37.7218C244.048 36.8413 242.634 36.1104 242.05 35.5494C241.487 35.0074 241.201 34.2409 241.201 33.2702C241.201 32.4097 241.554 31.7203 242.278 31.1621C243.008 30.601 244.023 30.3157 245.297 30.3157C246.479 30.3157 247.688 30.5011 248.891 30.8645C250.093 31.228 251.149 31.7147 252.03 32.3101L252.32 32.5068V26.072L252.208 26.0246C251.395 25.6783 250.323 25.382 249.021 25.1416C247.725 24.9028 246.55 24.7822 245.527 24.7822ZM209.578 47.5176C211.008 49.188 213.039 50.0359 215.613 50.0359C218.204 50.0359 220.184 49.2036 221.502 47.565C222.829 45.914 223.502 43.446 223.502 40.2329C223.502 37.0589 222.786 34.623 221.376 32.9907C219.973 31.3669 218.015 30.5442 215.556 30.5442C213.02 30.5442 211.01 31.4056 209.579 33.1028C208.139 34.8113 207.41 37.2669 207.41 40.4043C207.41 43.446 208.138 45.8388 209.578 47.5176ZM215.93 24.7822C211.016 24.7822 207.114 26.2119 204.333 29.0315C201.553 31.8515 200.142 35.7539 200.142 40.6313C200.142 45.2659 201.519 48.9903 204.233 51.705C206.948 54.4207 210.641 55.7963 215.211 55.7963C219.972 55.7963 223.797 54.3467 226.578 51.4881C229.358 48.6325 230.767 44.767 230.767 40.0035C230.767 35.2983 229.445 31.5442 226.836 28.8476C224.226 26.1498 220.556 24.7822 215.93 24.7822ZM189.374 25.495V30.6192H189.448C190.103 28.9563 190.959 27.6228 192.144 26.6502C193.494 25.5437 195.07 24.9818 196.831 24.9818C197.999 24.9818 198.922 25.1207 199.575 25.3961L199.688 25.4445V32.4612L199.394 32.2492C199.069 32.0169 198.519 31.7962 197.76 31.593C196.992 31.3885 196.284 31.2851 195.653 31.2851C193.79 31.2851 192.265 32.0847 191.121 33.6626C189.961 35.2596 189.374 37.374 189.374 39.9476V55.0829H182.366V25.495H189.374ZM169.816 24.7822C166.601 24.7822 163.734 25.4669 161.295 26.8167C158.85 28.1695 156.96 30.1009 155.674 32.5568C154.394 35.0067 153.744 37.8685 153.744 41.06C153.744 43.8556 154.374 46.4211 155.62 48.6822C156.866 50.947 158.63 52.7188 160.864 53.9477C163.094 55.175 165.671 55.7973 168.525 55.7973C171.855 55.7973 174.699 55.136 176.978 53.8319L177.071 53.7794V47.403L176.776 47.6166C175.743 48.3637 174.589 48.96 173.348 49.3896C172.109 49.8189 170.98 50.0359 169.99 50.0359C167.24 50.0359 165.032 49.1814 163.43 47.4967C161.824 45.8098 161.01 43.441 161.01 40.4602C161.01 37.4608 161.859 35.0311 163.533 33.2383C165.201 31.4509 167.412 30.5442 170.105 30.5442C172.409 30.5442 174.653 31.3188 176.777 32.8487L177.071 33.0607V26.3421L176.976 26.289C176.176 25.8447 175.087 25.4779 173.734 25.1997C172.386 24.9221 171.068 24.7822 169.816 24.7822ZM141.91 25.4954H148.917V55.0829H141.91V25.4954ZM145.485 12.8908C144.332 12.8908 143.326 13.2808 142.499 14.0535C141.669 14.8285 141.248 15.8041 141.248 16.9556C141.248 18.0889 141.664 19.0468 142.486 19.8011C143.303 20.5533 144.312 20.9345 145.485 20.9345C146.658 20.9345 147.671 20.5533 148.498 19.8024C149.329 19.0468 149.751 18.0892 149.751 16.9556C149.751 15.8444 149.341 14.8787 148.532 14.0847C147.724 13.2923 146.698 12.8908 145.485 12.8908ZM128 55.0829V23.3123H127.77L115.078 55.0829H110.006L97.1132 23.3092H96.8825V55.0826H90.1618V13.7966H100.463L112.672 44.4629L125.254 13.7966H135.152V55.0829H128Z" fill="#2F2F2F"/>
<path d="M32.9664 32.7416H0V0H32.9664V32.7416Z" fill="#F1511B"/>
<path d="M69.3649 32.7416H36.3992V0H69.3649V32.7416Z" fill="#80CC28"/>
<path d="M32.9654 68.9048H0V36.1635H32.9654V68.9048Z" fill="#00ADEF"/>
<path d="M69.3649 68.9048H36.3992V36.1635H69.3649V68.9048Z" fill="#FBBC09"/>
</svg>
