<svg width="166" height="170" viewBox="0 0 166 170" fill="none" xmlns="http://www.w3.org/2000/svg">
<rect width="166" height="170" rx="8" fill="#D4D0E8"/>
<path d="M112.243 111.558H52.4106C48.7779 111.558 46 108.781 46 105.148V62.4106C46 58.7779 48.7779 56 52.4106 56H112.243C115.875 56 118.653 58.7779 118.653 62.4106V105.148C118.653 108.781 115.875 111.558 112.243 111.558ZM52.4106 60.2737C51.1285 60.2737 50.2737 61.1285 50.2737 62.4106V105.148C50.2737 106.43 51.1285 107.285 52.4106 107.285H112.243C113.525 107.285 114.38 106.43 114.38 105.148V62.4106C114.38 61.1285 113.525 60.2737 112.243 60.2737H52.4106Z" fill="#F2F2FD"/>
<path d="M93.0111 81.6424C88.31 81.6424 84.4637 77.796 84.4637 73.0949C84.4637 68.3938 88.31 64.5475 93.0111 64.5475C97.7122 64.5475 101.559 68.3938 101.559 73.0949C101.559 77.796 97.7122 81.6424 93.0111 81.6424ZM93.0111 68.8212C90.6606 68.8212 88.7374 70.7444 88.7374 73.0949C88.7374 75.4455 90.6606 77.3687 93.0111 77.3687C95.3617 77.3687 97.2848 75.4455 97.2848 73.0949C97.2848 70.7444 95.3617 68.8212 93.0111 68.8212Z" fill="#F2F2FD"/>
<path d="M104.337 110.917L69.5058 78.2233L49.6329 96.6004L46.6413 93.6088L69.5058 72.2401L107.328 107.926L104.337 110.917Z" fill="#F2F2FD"/>
<path d="M27.3333 143.41L21.2917 139.917C20.9245 139.705 20.508 139.594 20.0839 139.594C19.6599 139.594 19.2434 139.705 18.8761 139.917C18.5088 140.129 18.2036 140.433 17.9914 140.8C17.7791 141.167 17.6671 141.584 17.6667 142.008V148.992C17.6671 149.416 17.779 149.832 17.9911 150.199C18.2031 150.566 18.508 150.871 18.875 151.082C19.2424 151.295 19.6591 151.406 20.0833 151.406C20.5075 151.406 20.9243 151.295 21.2917 151.082L27.3333 147.59C27.6995 147.378 28.0035 147.073 28.2148 146.706C28.4262 146.339 28.5374 145.923 28.5374 145.5C28.5374 145.077 28.4262 144.661 28.2148 144.294C28.0035 143.927 27.6995 143.622 27.3333 143.41ZM26.125 145.5L20.0833 148.992V142.008L26.125 145.5ZM22.5 133.417C20.1101 133.417 17.7739 134.125 15.7869 135.453C13.7998 136.781 12.251 138.668 11.3365 140.876C10.4219 143.084 10.1826 145.513 10.6488 147.857C11.1151 150.201 12.2659 152.354 13.9558 154.044C15.6457 155.734 17.7987 156.885 20.1427 157.351C22.4866 157.817 24.9161 157.578 27.1241 156.664C29.332 155.749 31.2192 154.2 32.5469 152.213C33.8747 150.226 34.5833 147.89 34.5833 145.5C34.5833 143.913 34.2708 142.342 33.6635 140.876C33.0563 139.41 32.1662 138.078 31.0442 136.956C29.9222 135.834 28.5901 134.944 27.1241 134.336C25.6581 133.729 24.0868 133.417 22.5 133.417ZM22.5 155.167C20.5881 155.167 18.7192 154.6 17.1295 153.537C15.5398 152.475 14.3008 150.966 13.5692 149.199C12.8375 147.433 12.6461 145.489 13.0191 143.614C13.3921 141.739 14.3127 140.017 15.6646 138.665C17.0165 137.313 18.739 136.392 20.6141 136.019C22.4893 135.646 24.4329 135.837 26.1993 136.569C27.9656 137.301 29.4753 138.54 30.5375 140.129C31.5997 141.719 32.1667 143.588 32.1667 145.5C32.1667 148.064 31.1482 150.522 29.3354 152.335C27.5225 154.148 25.0638 155.167 22.5 155.167Z" fill="#D4D0E8"/>
<path d="M143 133.5C140.528 133.5 138.111 134.233 136.055 135.607C134 136.98 132.398 138.932 131.452 141.216C130.505 143.501 130.258 146.014 130.74 148.439C131.223 150.863 132.413 153.091 134.161 154.839C135.909 156.587 138.137 157.778 140.561 158.26C142.986 158.742 145.499 158.495 147.784 157.548C150.068 156.602 152.02 155 153.393 152.945C154.767 150.889 155.5 148.472 155.5 146C155.5 144.358 155.177 142.733 154.549 141.216C153.92 139.7 153 138.322 151.839 137.161C150.678 136 149.3 135.08 147.784 134.452C146.267 133.823 144.642 133.5 143 133.5ZM143 156C141.022 156 139.089 155.414 137.444 154.315C135.8 153.216 134.518 151.654 133.761 149.827C133.004 148 132.806 145.989 133.192 144.049C133.578 142.109 134.53 140.327 135.929 138.929C137.327 137.53 139.109 136.578 141.049 136.192C142.989 135.806 145 136.004 146.827 136.761C148.654 137.518 150.216 138.8 151.315 140.444C152.414 142.089 153 144.022 153 146C153 148.652 151.946 151.196 150.071 153.071C148.196 154.946 145.652 156 143 156ZM148 144.75H144.25V141C144.25 140.668 144.118 140.351 143.884 140.116C143.649 139.882 143.332 139.75 143 139.75C142.668 139.75 142.351 139.882 142.116 140.116C141.882 140.351 141.75 140.668 141.75 141V144.75H138C137.668 144.75 137.351 144.882 137.116 145.116C136.882 145.351 136.75 145.668 136.75 146C136.75 146.332 136.882 146.649 137.116 146.884C137.351 147.118 137.668 147.25 138 147.25H141.75V151C141.75 151.332 141.882 151.649 142.116 151.884C142.351 152.118 142.668 152.25 143 152.25C143.332 152.25 143.649 152.118 143.884 151.884C144.118 151.649 144.25 151.332 144.25 151V147.25H148C148.332 147.25 148.649 147.118 148.884 146.884C149.118 146.649 149.25 146.332 149.25 146C149.25 145.668 149.118 145.351 148.884 145.116C148.649 144.882 148.332 144.75 148 144.75Z" fill="#D4D0E8"/>
<path d="M123 13.8021C121.894 12.6958 120.428 12.0233 118.868 11.9067C117.308 11.79 115.758 12.2372 114.5 13.1667C113.175 12.1809 111.525 11.7339 109.883 11.9157C108.242 12.0975 106.73 12.8946 105.652 14.1465C104.574 15.3983 104.011 17.012 104.076 18.6625C104.14 20.313 104.828 21.8778 106 23.0417L113.76 30.8021C113.857 30.8997 113.972 30.9772 114.099 31.0301C114.226 31.083 114.362 31.1102 114.5 31.1102C114.638 31.1102 114.774 31.083 114.901 31.0301C115.028 30.9772 115.143 30.8997 115.24 30.8021L123 23.0417C123.607 22.4351 124.088 21.715 124.417 20.9223C124.745 20.1296 124.914 19.2799 124.914 18.4219C124.914 17.5638 124.745 16.7142 124.417 15.9215C124.088 15.1288 123.607 14.4086 123 13.8021ZM121.531 21.5729L114.5 28.5938L107.469 21.5729C106.849 20.9507 106.427 20.1594 106.255 19.2983C106.084 18.4371 106.17 17.5445 106.504 16.7323C106.838 15.9201 107.404 15.2246 108.132 14.7329C108.859 14.2413 109.716 13.9755 110.594 13.9688C111.767 13.9716 112.891 14.4399 113.719 15.2708C113.816 15.3685 113.931 15.446 114.058 15.4989C114.185 15.5517 114.321 15.579 114.458 15.579C114.596 15.579 114.732 15.5517 114.859 15.4989C114.986 15.446 115.101 15.3685 115.198 15.2708C116.05 14.5322 117.152 14.145 118.279 14.1875C119.406 14.2301 120.475 14.6993 121.269 15.5002C122.063 16.3011 122.524 17.3738 122.557 18.5012C122.59 19.6287 122.194 20.7267 121.448 21.5729H121.531Z" fill="#D4D0E8"/>
<path d="M144.458 11.0834C142.398 11.0834 140.384 11.6943 138.671 12.8389C136.958 13.9835 135.623 15.6104 134.835 17.5138C134.046 19.4172 133.84 21.5116 134.242 23.5322C134.644 25.5529 135.636 27.4089 137.093 28.8657C138.549 30.3225 140.406 31.3146 142.426 31.7166C144.447 32.1185 146.541 31.9122 148.445 31.1238C150.348 30.3354 151.975 29.0002 153.119 27.2872C154.264 25.5742 154.875 23.5603 154.875 21.5C154.875 20.1321 154.606 18.7776 154.082 17.5138C153.559 16.2499 152.791 15.1016 151.824 14.1343C150.857 13.1671 149.708 12.3998 148.445 11.8763C147.181 11.3528 145.826 11.0834 144.458 11.0834ZM144.458 29.8334C142.81 29.8334 141.199 29.3446 139.829 28.429C138.458 27.5133 137.39 26.2118 136.759 24.6891C136.129 23.1664 135.964 21.4908 136.285 19.8743C136.607 18.2578 137.4 16.7729 138.566 15.6075C139.731 14.442 141.216 13.6484 142.833 13.3268C144.449 13.0053 146.125 13.1703 147.647 13.801C149.17 14.4318 150.472 15.4999 151.387 16.8703C152.303 18.2407 152.792 19.8519 152.792 21.5C152.792 23.7102 151.914 25.8298 150.351 27.3926C148.788 28.9554 146.668 29.8334 144.458 29.8334ZM147.687 22.1563L145.5 20.8959V16.2917C145.5 16.0154 145.39 15.7505 145.195 15.5551C145 15.3598 144.735 15.25 144.458 15.25C144.182 15.25 143.917 15.3598 143.722 15.5551C143.526 15.7505 143.417 16.0154 143.417 16.2917V21.5C143.417 21.5 143.417 21.5834 143.417 21.625C143.423 21.6968 143.44 21.7671 143.469 21.8334C143.49 21.8952 143.518 21.9545 143.552 22.0105C143.581 22.0697 143.616 22.1256 143.656 22.1771L143.823 22.3125L143.917 22.4063L146.625 23.9688C146.784 24.0588 146.963 24.1055 147.146 24.1042C147.376 24.1058 147.601 24.0308 147.785 23.891C147.968 23.7512 148.1 23.5545 148.159 23.3316C148.219 23.1088 148.203 22.8725 148.114 22.6598C148.025 22.4471 147.867 22.27 147.667 22.1563H147.687Z" fill="#D4D0E8"/>
</svg>
