<svg width="20" height="22" viewBox="0 0 20 22" fill="none" xmlns="http://www.w3.org/2000/svg">
<path fill-rule="evenodd" clip-rule="evenodd" d="M10.6604 2.2811C10.2561 2.02951 9.74392 2.02951 9.33959 2.2811L2.3396 6.63691C1.97292 6.86507 1.75 7.26635 1.75 7.69821V19.2768C1.75 19.4149 1.86193 19.5268 2 19.5268H6.53846C6.95268 19.5268 7.28846 19.8626 7.28846 20.2768C7.28846 20.691 6.95268 21.0268 6.53846 21.0268H2C1.0335 21.0268 0.25 20.2433 0.25 19.2768V7.69821C0.25 6.74811 0.740431 5.8653 1.54711 5.36334L8.54711 1.00754C9.43663 0.454031 10.5634 0.454029 11.4529 1.00754L18.4529 5.36334C19.2596 5.8653 19.75 6.74811 19.75 7.69821V19.2768C19.75 20.2433 18.9665 21.0268 18 21.0268H14.4615C13.495 21.0268 12.7115 20.2433 12.7115 19.2768V13.5652C12.7115 12.8748 12.1519 12.3152 11.4615 12.3152H6.53846C6.12425 12.3152 5.78846 11.9794 5.78846 11.5652C5.78846 11.151 6.12425 10.8152 6.53846 10.8152H11.4615C12.9803 10.8152 14.2115 12.0464 14.2115 13.5652V19.2768C14.2115 19.4149 14.3235 19.5268 14.4615 19.5268H18C18.1381 19.5268 18.25 19.4149 18.25 19.2768V7.69821C18.25 7.26635 18.0271 6.86507 17.6604 6.63691L10.6604 2.2811Z" fill="#000000"/>
</svg>
