<svg width="20" height="20" viewBox="0 0 20 20" fill="none" xmlns="http://www.w3.org/2000/svg">
<path fill-rule="evenodd" clip-rule="evenodd" d="M13.2327 0.989438C13.2391 0.575274 13.58 0.244694 13.9942 0.251067C15.9495 0.281157 17.8608 1.25021 18.7597 2.96367C19.6521 4.66473 19.9639 6.51363 19.6029 8.45119C19.244 10.3778 18.2292 12.3462 16.5448 14.3229C15.277 15.8108 13.6215 17.3135 11.5571 18.8198C10.6277 19.498 9.36671 19.4941 8.4399 18.8177C4.67334 16.0688 2.25256 13.3203 1.08085 10.6404C-0.104585 7.92903 0.00500195 5.31822 1.2403 2.96348C2.84583 -0.0970172 7.67216 -0.841334 10.5418 2.1577C10.8282 2.45698 10.8177 2.93174 10.5185 3.21811C10.2192 3.50447 9.74443 3.49401 9.45807 3.19473C7.22814 0.864284 3.65223 1.59471 2.56862 3.66031C1.55428 5.59385 1.44386 7.72625 2.45523 10.0395C3.48031 12.384 5.67314 14.9414 9.32418 17.6061C9.72674 17.8999 10.2729 17.9 10.6729 17.6081C12.6651 16.1545 14.2278 14.7294 15.4031 13.35C16.9662 11.5157 17.8295 9.78023 18.1283 8.17649C18.425 6.58373 18.1739 5.07592 17.4314 3.6605C16.8363 2.52619 15.4904 1.77427 13.9711 1.75089C13.5569 1.74452 13.2264 1.4036 13.2327 0.989438Z" fill="#000000"/>
</svg>
