<svg width="24" height="24" viewBox="0 0 24 24" fill="none" xmlns="http://www.w3.org/2000/svg">
<path fill-rule="evenodd" clip-rule="evenodd" d="M12.5 6.5C12.5 4.98122 13.7312 3.75 15.25 3.75C16.7688 3.75 18 4.98122 18 6.5C18 8.01878 16.7688 9.25 15.25 9.25C13.7312 9.25 12.5 8.01878 12.5 6.5ZM15.25 2.25C12.9028 2.25 11 4.15279 11 6.5C11 8.84721 12.9028 10.75 15.25 10.75C17.5972 10.75 19.5 8.84721 19.5 6.5C19.5 4.15279 17.5972 2.25 15.25 2.25ZM6.5 8.5C6.5 7.5335 7.2835 6.75 8.25 6.75C8.66421 6.75 9 6.41421 9 6C9 5.58579 8.66421 5.25 8.25 5.25C6.45507 5.25 5 6.70507 5 8.5C5 10.2949 6.45507 11.75 8.25 11.75C8.71083 11.75 9.15114 11.6536 9.55028 11.4792C9.92984 11.3134 10.1031 10.8713 9.93726 10.4917C9.77143 10.1121 9.32929 9.93887 8.94972 10.1047C8.7364 10.1979 8.50027 10.25 8.25 10.25C7.2835 10.25 6.5 9.4665 6.5 8.5ZM11 16C11 13.9289 12.6789 12.25 14.75 12.25H15.75C17.8211 12.25 19.5 13.9289 19.5 16V21C19.5 21.4142 19.1642 21.75 18.75 21.75C18.3358 21.75 18 21.4142 18 21V16C18 14.7574 16.9926 13.75 15.75 13.75H14.75C13.5074 13.75 12.5 14.7574 12.5 16V21C12.5 21.4142 12.1642 21.75 11.75 21.75C11.3358 21.75 11 21.4142 11 21V16ZM8.25 12.25C6.45507 12.25 5 13.7051 5 15.5V19C5 19.4142 5.33579 19.75 5.75 19.75C6.16421 19.75 6.5 19.4142 6.5 19V15.5C6.5 14.5335 7.2835 13.75 8.25 13.75C8.57006 13.75 8.86794 13.8352 9.12462 13.9838C9.48314 14.1912 9.94195 14.0687 10.1494 13.7102C10.3568 13.3517 10.2344 12.8929 9.87584 12.6854C9.39698 12.4083 8.84084 12.25 8.25 12.25Z" fill="#000000"/>
</svg>
