<svg width="232" height="56" viewBox="0 0 232 56" fill="none" xmlns="http://www.w3.org/2000/svg">
<path fill-rule="evenodd" clip-rule="evenodd" d="M95 42.3111H90.0555L77.0288 21.2737C76.6992 20.7414 76.4265 20.1891 76.2111 19.6169H76.0969C76.1983 20.2292 76.2491 21.5398 76.2491 23.5489V42.3111H71.875V13.6889H77.1428L89.7322 34.2274C90.2647 35.0792 90.6071 35.6646 90.7592 35.9839H90.8352C90.7085 35.2255 90.645 33.9415 90.645 32.1316V13.6889H95V42.3111ZM64.0431 42.9333C63.2672 42.9333 62.6078 42.6638 62.0647 42.1245C61.5216 41.5714 61.25 40.9146 61.25 40.1542C61.25 39.3797 61.5216 38.7162 62.0647 38.163C62.6078 37.6099 63.2672 37.3334 64.0431 37.3334C64.8319 37.3334 65.4978 37.6099 66.0409 38.163C66.597 38.7162 66.875 39.3797 66.875 40.1542C66.875 40.9146 66.597 41.5714 66.0409 42.1245C65.4978 42.6638 64.8319 42.9333 64.0431 42.9333ZM101.25 42.3111H116.875V38.2992H105.87V29.8363H115.439V25.8244H105.87V17.7209H116.254V13.6889H101.25V42.3111ZM139.375 17.7209H131.366V42.3111H126.739V17.7209H118.75V13.6889H139.375V17.7209ZM179.618 40.5969H179.526C178.74 41.7397 177.564 42.3111 175.998 42.3111C174.528 42.3111 173.383 41.8081 172.563 40.8022C171.749 39.7962 171.343 38.3659 171.343 36.5114C171.343 34.6568 171.753 33.2163 172.573 32.1898C173.393 31.1632 174.535 30.65 175.998 30.65C177.523 30.65 178.692 31.2043 179.505 32.3129H179.639L179.567 31.502L179.526 30.7116V26.1333H181.228V42.1058H179.844L179.618 40.5969ZM176.213 40.8843C177.376 40.8843 178.217 40.5695 178.736 39.9399C179.263 39.3035 179.526 38.2804 179.526 36.8706V36.5114C179.526 34.9168 179.259 33.7808 178.726 33.1033C178.199 32.419 177.355 32.0768 176.193 32.0768C175.195 32.0768 174.429 32.4669 173.896 33.2471C173.37 34.0204 173.106 35.1153 173.106 36.5319C173.106 37.969 173.37 39.0537 173.896 39.7859C174.422 40.5182 175.195 40.8843 176.213 40.8843ZM154.822 34.9819C155.861 34.1606 156.381 32.9904 156.381 31.4712C156.381 28.5559 154.508 27.0983 150.761 27.0983H146.875V42.1058H148.618V36.2034H150.382C152.31 36.2034 153.79 35.7962 154.822 34.9819ZM150.187 34.7047H148.618V28.6072H150.567C151.941 28.6072 152.953 28.8502 153.602 29.3361C154.251 29.8219 154.576 30.561 154.576 31.5533C154.576 32.6551 154.231 33.4558 153.541 33.9553C152.85 34.4549 151.732 34.7047 150.187 34.7047ZM167.589 40.7714C168.512 39.738 168.974 38.3043 168.974 36.4703C168.974 34.6842 168.509 33.2676 167.579 32.2205C166.656 31.1735 165.409 30.65 163.836 30.65C162.209 30.65 160.938 31.1632 160.021 32.1898C159.105 33.2094 158.647 34.6363 158.647 36.4703C158.647 37.6542 158.859 38.6876 159.283 39.5703C159.707 40.4531 160.309 41.1306 161.088 41.6028C161.867 42.075 162.759 42.3111 163.764 42.3111C165.391 42.3111 166.666 41.7979 167.589 40.7714ZM161.272 39.7551C160.698 39.0023 160.411 37.9074 160.411 36.4703C160.411 35.0195 160.695 33.928 161.262 33.1957C161.83 32.4635 162.671 32.0974 163.785 32.0974C164.913 32.0974 165.764 32.4703 166.338 33.2163C166.919 33.9553 167.21 35.04 167.21 36.4703C167.21 37.9142 166.919 39.0126 166.338 39.7654C165.764 40.5113 164.92 40.8843 163.805 40.8843C162.691 40.8843 161.847 40.5079 161.272 39.7551ZM185.555 40.8124C186.451 41.8116 187.712 42.3111 189.339 42.3111C190.481 42.3111 191.428 42.1161 192.18 41.726V40.217C191.195 40.6208 190.235 40.8227 189.298 40.8227C188.205 40.8227 187.377 40.4531 186.817 39.7141C186.263 38.975 185.986 37.9142 185.986 36.5319C185.986 33.6166 187.128 32.159 189.411 32.159C189.753 32.159 190.146 32.2103 190.59 32.3129C191.035 32.4087 191.445 32.5319 191.821 32.6825L192.344 31.2351C192.036 31.0777 191.612 30.9408 191.072 30.8245C190.532 30.7082 189.992 30.65 189.452 30.65C187.777 30.65 186.485 31.1632 185.576 32.1898C184.674 33.2163 184.222 34.6705 184.222 36.5524C184.222 38.3864 184.667 39.8064 185.555 40.8124ZM201.768 42.1058L201.43 40.5045H201.348C200.787 41.2093 200.226 41.6884 199.666 41.9416C199.112 42.1879 198.418 42.3111 197.584 42.3111C196.47 42.3111 195.595 42.0237 194.959 41.4489C194.33 40.874 194.015 40.0562 194.015 38.9955C194.015 36.7235 195.831 35.5327 199.461 35.4233L201.368 35.3617V34.6636C201.368 33.7808 201.177 33.1307 200.794 32.7133C200.418 32.289 199.813 32.0768 198.979 32.0768C198.042 32.0768 196.982 32.3643 195.8 32.9391L195.277 31.6354C195.831 31.3343 196.436 31.0982 197.092 30.9271C197.755 30.7561 198.418 30.6705 199.081 30.6705C200.421 30.6705 201.412 30.9682 202.055 31.5636C202.705 32.159 203.029 33.1136 203.029 34.4275V42.1058H201.768ZM197.922 40.9048C198.982 40.9048 199.813 40.614 200.414 40.0323C201.023 39.4506 201.327 38.6362 201.327 37.5892V36.5729L199.625 36.6448C198.271 36.6927 197.294 36.9048 196.692 37.2812C196.097 37.6508 195.8 38.229 195.8 39.016C195.8 39.6319 195.984 40.1007 196.354 40.4223C196.73 40.744 197.253 40.9048 197.922 40.9048ZM212.628 41.4591C213.407 40.8911 213.797 40.0836 213.797 39.0366C213.797 38.2906 213.561 37.6713 213.089 37.1786C212.624 36.6859 211.725 36.1966 210.392 35.7107C209.421 35.348 208.765 35.0708 208.423 34.8792C208.081 34.6876 207.832 34.4857 207.675 34.2736C207.524 34.0614 207.449 33.8048 207.449 33.5037C207.449 33.0589 207.654 32.7098 208.064 32.4566C208.474 32.2034 209.083 32.0768 209.89 32.0768C210.806 32.0768 211.828 32.3095 212.956 32.7749L213.561 31.3891C212.405 30.8963 211.223 30.65 210.013 30.65C208.714 30.65 207.692 30.9169 206.947 31.4507C206.201 31.9776 205.829 32.6996 205.829 33.6166C205.829 34.1299 205.935 34.5713 206.147 34.9408C206.365 35.3103 206.694 35.6422 207.131 35.9365C207.576 36.2239 208.321 36.5627 209.367 36.9528C210.467 37.377 211.206 37.7466 211.582 38.0614C211.964 38.3693 212.156 38.7423 212.156 39.1803C212.156 39.762 211.917 40.1965 211.438 40.4839C210.96 40.7645 210.276 40.9048 209.387 40.9048C208.813 40.9048 208.215 40.8261 207.593 40.6687C206.977 40.5113 206.4 40.2957 205.86 40.022V41.6028C206.694 42.075 207.856 42.3111 209.346 42.3111C210.754 42.3111 211.848 42.0271 212.628 41.4591ZM220.206 40.9048C220.507 40.9048 220.797 40.8843 221.077 40.8432C221.358 40.7953 221.58 40.7474 221.744 40.6995V42.0032C221.559 42.0921 221.286 42.164 220.924 42.2187C220.568 42.2803 220.247 42.3111 219.96 42.3111C217.786 42.3111 216.699 41.1649 216.699 38.8723V32.1795H215.089V31.3583L216.699 30.65L217.417 28.248H218.401V30.8553H221.662V32.1795H218.401V38.8005C218.401 39.478 218.562 39.9981 218.883 40.3608C219.204 40.7235 219.645 40.9048 220.206 40.9048ZM230.081 41.4591C230.86 40.8911 231.25 40.0836 231.25 39.0366C231.25 38.2906 231.014 37.6713 230.542 37.1786C230.078 36.6859 229.179 36.1966 227.845 35.7107C226.875 35.348 226.218 35.0708 225.877 34.8792C225.535 34.6876 225.285 34.4857 225.128 34.2736C224.978 34.0614 224.902 33.8048 224.902 33.5037C224.902 33.0589 225.107 32.7098 225.518 32.4566C225.928 32.2034 226.536 32.0768 227.343 32.0768C228.259 32.0768 229.281 32.3095 230.409 32.7749L231.014 31.3891C229.859 30.8963 228.676 30.65 227.466 30.65C226.167 30.65 225.145 30.9169 224.4 31.4507C223.655 31.9776 223.282 32.6996 223.282 33.6166C223.282 34.1299 223.388 34.5713 223.6 34.9408C223.819 35.3103 224.147 35.6422 224.585 35.9365C225.029 36.2239 225.774 36.5627 226.82 36.9528C227.921 37.377 228.659 37.7466 229.035 38.0614C229.418 38.3693 229.609 38.7423 229.609 39.1803C229.609 39.762 229.37 40.1965 228.891 40.4839C228.413 40.7645 227.729 40.9048 226.841 40.9048C226.266 40.9048 225.668 40.8261 225.046 40.6687C224.431 40.5113 223.853 40.2957 223.313 40.022V41.6028C224.147 42.075 225.309 42.3111 226.799 42.3111C228.208 42.3111 229.302 42.0271 230.081 41.4591Z" fill="white"/>
<path d="M0.671868 12.9865C-0.190509 12.1816 -0.238352 10.828 0.619127 10.0179C3.78591 7.02616 7.46865 4.61781 11.4964 2.91178C16.1816 0.927288 21.2309 -0.0633216 26.3221 0.00313556C31.4133 0.0695928 36.4347 1.19166 41.066 3.29776C45.0475 5.10834 48.6655 7.61199 51.7524 10.6854C52.5883 11.5176 52.5048 12.8694 51.6215 13.6515C50.7382 14.4337 49.3901 14.3492 48.5478 13.5235C45.8607 10.8892 42.7277 8.73875 39.2874 7.17427C35.1971 5.31422 30.7623 4.32324 26.2659 4.26455C21.7695 4.20585 17.3102 5.08073 13.1723 6.83338C9.69203 8.30752 6.5034 10.3754 3.74785 12.9387C2.88411 13.7421 1.53425 13.7914 0.671868 12.9865Z" fill="url(#paint0_radial_1541:750)"/>
<path d="M7.35073 18.778C6.48735 17.9709 6.43933 16.6129 7.31414 15.8181C9.62422 13.7193 12.2774 12.02 15.1643 10.7962C18.71 9.29314 22.5309 8.5403 26.3844 8.58544C30.2379 8.63058 34.0399 9.47272 37.5491 11.0584C40.4062 12.3495 43.0185 14.1105 45.2783 16.2628C46.1341 17.0779 46.054 18.4344 45.1718 19.221C44.2896 20.0077 42.9401 19.9252 42.0729 19.1222C40.2177 17.4042 38.0922 15.9929 35.7765 14.9465C32.8085 13.6054 29.593 12.8931 26.3339 12.8549C23.0748 12.8168 19.8433 13.4535 16.8445 14.7247C14.5047 15.7165 12.3464 17.0778 10.4511 18.7517C9.56516 19.5342 8.2141 19.5851 7.35073 18.778Z" fill="url(#paint1_radial_1541:750)"/>
<path d="M32.739 35.3076C32.739 34.2955 33.5631 33.4751 34.5797 33.4751H34.7781C35.7947 33.4751 36.6188 34.2955 36.6188 35.3076V38.0801C36.6188 39.0922 35.7947 39.9126 34.7781 39.9126H34.5797C33.5631 39.9126 32.739 39.0922 32.739 38.0801V35.3076Z" fill="url(#paint2_radial_1541:750)"/>
<path d="M15.0646 35.3079C15.0646 34.2958 15.8887 33.4754 16.9052 33.4754H17.1037C18.1203 33.4754 18.9443 34.2958 18.9443 35.3079V38.0804C18.9443 39.0925 18.1202 39.9129 17.1037 39.9129H16.9052C15.8887 39.9129 15.0646 39.0925 15.0646 38.0804V35.3079Z" fill="url(#paint3_radial_1541:750)"/>
<path fill-rule="evenodd" clip-rule="evenodd" d="M25.8417 55.7916C36.5553 55.7916 45.2404 47.1451 45.2404 36.479C45.2404 25.813 36.5553 17.1665 25.8417 17.1665C15.128 17.1665 6.4429 25.813 6.4429 36.479C6.4429 47.1451 15.128 55.7916 25.8417 55.7916ZM17.0938 30.0415C13.5923 30.0415 10.7537 32.8674 10.7537 36.3534V37.0339C10.7537 40.5198 13.5923 43.3457 17.0938 43.3457H21.8871L24.5851 40.1249C25.2392 39.344 26.4441 39.344 27.0982 40.1249L29.7962 43.3457H34.5896C38.0911 43.3457 40.9296 40.5198 40.9296 37.0339V36.3534C40.9296 32.8675 38.0911 30.0415 34.5896 30.0415H17.0938Z" fill="url(#paint4_radial_1541:750)"/>
<defs>
<radialGradient id="paint0_radial_1541:750" cx="0" cy="0" r="1" gradientUnits="userSpaceOnUse" gradientTransform="translate(3.82909e-06 0.00321741) rotate(48.1877) scale(74.8502 342.282)">
<stop stop-color="#C00CC0"/>
<stop offset="1" stop-color="#E10890"/>
</radialGradient>
<radialGradient id="paint1_radial_1541:750" cx="0" cy="0" r="1" gradientUnits="userSpaceOnUse" gradientTransform="translate(3.82909e-06 0.00321741) rotate(48.1877) scale(74.8502 342.282)">
<stop stop-color="#C00CC0"/>
<stop offset="1" stop-color="#E10890"/>
</radialGradient>
<radialGradient id="paint2_radial_1541:750" cx="0" cy="0" r="1" gradientUnits="userSpaceOnUse" gradientTransform="translate(3.82909e-06 0.00321741) rotate(48.1877) scale(74.8502 342.282)">
<stop stop-color="#C00CC0"/>
<stop offset="1" stop-color="#E10890"/>
</radialGradient>
<radialGradient id="paint3_radial_1541:750" cx="0" cy="0" r="1" gradientUnits="userSpaceOnUse" gradientTransform="translate(3.82909e-06 0.00321741) rotate(48.1877) scale(74.8502 342.282)">
<stop stop-color="#C00CC0"/>
<stop offset="1" stop-color="#E10890"/>
</radialGradient>
<radialGradient id="paint4_radial_1541:750" cx="0" cy="0" r="1" gradientUnits="userSpaceOnUse" gradientTransform="translate(3.82909e-06 0.00321741) rotate(48.1877) scale(74.8502 342.282)">
<stop stop-color="#C00CC0"/>
<stop offset="1" stop-color="#E10890"/>
</radialGradient>
</defs>
</svg>
