<svg width="232" height="56" viewBox="0 0 232 56" fill="none" xmlns="http://www.w3.org/2000/svg">
<path fill-rule="evenodd" clip-rule="evenodd" d="M95 42.3112H90.0555L77.0288 21.2737C76.6992 20.7415 76.4265 20.1891 76.2111 19.617H76.0969C76.1983 20.2292 76.2491 21.5399 76.2491 23.549V42.3112H71.875V13.689H77.1428L89.7322 34.2275C90.2647 35.0793 90.6071 35.6647 90.7592 35.9839H90.8352C90.7085 35.2256 90.645 33.9415 90.645 32.1317V13.689H95V42.3112ZM64.0431 42.9334C63.2672 42.9334 62.6078 42.6639 62.0647 42.1245C61.5216 41.5714 61.25 40.9147 61.25 40.1542C61.25 39.3798 61.5216 38.7162 62.0647 38.1631C62.6078 37.61 63.2672 37.3334 64.0431 37.3334C64.8319 37.3334 65.4978 37.61 66.0409 38.1631C66.597 38.7162 66.875 39.3798 66.875 40.1542C66.875 40.9147 66.597 41.5714 66.0409 42.1245C65.4978 42.6639 64.8319 42.9334 64.0431 42.9334ZM101.25 42.3112H116.875V38.2993H105.87V29.8364H115.439V25.8245H105.87V17.7209H116.254V13.689H101.25V42.3112ZM139.375 17.7209H131.366V42.3112H126.739V17.7209H118.75V13.689H139.375V17.7209ZM179.618 40.5969H179.526C178.74 41.7398 177.564 42.3112 175.998 42.3112C174.528 42.3112 173.383 41.8082 172.563 40.8022C171.749 39.7962 171.343 38.366 171.343 36.5114C171.343 34.6569 171.753 33.2163 172.573 32.1898C173.393 31.1633 174.535 30.65 175.998 30.65C177.523 30.65 178.692 31.2044 179.505 32.313H179.639L179.567 31.5021L179.526 30.7116V26.1334H181.228V42.1059H179.844L179.618 40.5969ZM176.213 40.8843C177.376 40.8843 178.217 40.5695 178.736 39.94C179.263 39.3035 179.526 38.2804 179.526 36.8707V36.5114C179.526 34.9169 179.259 33.7809 178.726 33.1034C178.199 32.4191 177.355 32.0769 176.193 32.0769C175.195 32.0769 174.429 32.467 173.896 33.2471C173.37 34.0204 173.106 35.1154 173.106 36.5319C173.106 37.9691 173.37 39.0537 173.896 39.786C174.422 40.5182 175.195 40.8843 176.213 40.8843ZM154.822 34.9819C155.861 34.1607 156.381 32.9905 156.381 31.4713C156.381 28.556 154.508 27.0983 150.761 27.0983H146.875V42.1059H148.618V36.2035H150.382C152.31 36.2035 153.79 35.7963 154.822 34.9819ZM150.187 34.7048H148.618V28.6073H150.567C151.941 28.6073 152.953 28.8502 153.602 29.3361C154.251 29.822 154.576 30.5611 154.576 31.5534C154.576 32.6552 154.231 33.4558 153.541 33.9554C152.85 34.455 151.732 34.7048 150.187 34.7048ZM167.589 40.7714C168.512 39.7381 168.974 38.3044 168.974 36.4704C168.974 34.6842 168.509 33.2676 167.579 32.2206C166.656 31.1736 165.409 30.65 163.836 30.65C162.209 30.65 160.938 31.1633 160.021 32.1898C159.105 33.2095 158.647 34.6363 158.647 36.4704C158.647 37.6543 158.859 38.6876 159.283 39.5704C159.707 40.4532 160.309 41.1307 161.088 41.6029C161.867 42.0751 162.759 42.3112 163.764 42.3112C165.391 42.3112 166.666 41.7979 167.589 40.7714ZM161.272 39.7552C160.698 39.0024 160.411 37.9075 160.411 36.4704C160.411 35.0196 160.695 33.928 161.262 33.1958C161.83 32.4635 162.671 32.0974 163.785 32.0974C164.913 32.0974 165.764 32.4704 166.338 33.2163C166.919 33.9554 167.21 35.0401 167.21 36.4704C167.21 37.9143 166.919 39.0127 166.338 39.7654C165.764 40.5114 164.92 40.8843 163.805 40.8843C162.691 40.8843 161.847 40.508 161.272 39.7552ZM185.555 40.8125C186.451 41.8116 187.712 42.3112 189.339 42.3112C190.481 42.3112 191.428 42.1162 192.18 41.7261V40.2171C191.195 40.6209 190.235 40.8228 189.298 40.8228C188.205 40.8228 187.377 40.4532 186.817 39.7141C186.263 38.975 185.986 37.9143 185.986 36.5319C185.986 33.6167 187.128 32.159 189.411 32.159C189.753 32.159 190.146 32.2103 190.59 32.313C191.035 32.4088 191.445 32.532 191.821 32.6825L192.344 31.2352C192.036 31.0778 191.612 30.9409 191.072 30.8246C190.532 30.7082 189.992 30.65 189.452 30.65C187.777 30.65 186.485 31.1633 185.576 32.1898C184.674 33.2163 184.222 34.6705 184.222 36.5525C184.222 38.3865 184.667 39.8065 185.555 40.8125ZM201.768 42.1059L201.43 40.5045H201.348C200.787 41.2094 200.226 41.6884 199.666 41.9416C199.112 42.188 198.418 42.3112 197.584 42.3112C196.47 42.3112 195.595 42.0238 194.959 41.4489C194.33 40.8741 194.015 40.0563 194.015 38.9956C194.015 36.7236 195.831 35.5328 199.461 35.4233L201.368 35.3617V34.6637C201.368 33.7809 201.177 33.1308 200.794 32.7133C200.418 32.289 199.813 32.0769 198.979 32.0769C198.042 32.0769 196.982 32.3643 195.8 32.9392L195.277 31.6355C195.831 31.3344 196.436 31.0983 197.092 30.9272C197.755 30.7561 198.418 30.6706 199.081 30.6706C200.421 30.6706 201.412 30.9683 202.055 31.5636C202.705 32.159 203.029 33.1137 203.029 34.4276V42.1059H201.768ZM197.922 40.9049C198.982 40.9049 199.813 40.614 200.414 40.0323C201.023 39.4507 201.327 38.6363 201.327 37.5892V36.573L199.625 36.6449C198.271 36.6928 197.294 36.9049 196.692 37.2813C196.097 37.6508 195.8 38.2291 195.8 39.0161C195.8 39.632 195.984 40.1008 196.354 40.4224C196.73 40.7441 197.253 40.9049 197.922 40.9049ZM212.628 41.4592C213.407 40.8912 213.797 40.0837 213.797 39.0366C213.797 38.2907 213.561 37.6714 213.089 37.1786C212.624 36.6859 211.725 36.1966 210.392 35.7107C209.421 35.348 208.765 35.0709 208.423 34.8793C208.081 34.6876 207.832 34.4858 207.675 34.2736C207.524 34.0615 207.449 33.8049 207.449 33.5037C207.449 33.0589 207.654 32.7099 208.064 32.4567C208.474 32.2035 209.083 32.0769 209.89 32.0769C210.806 32.0769 211.828 32.3096 212.956 32.7749L213.561 31.3891C212.405 30.8964 211.223 30.65 210.013 30.65C208.714 30.65 207.692 30.9169 206.947 31.4507C206.201 31.9777 205.829 32.6996 205.829 33.6167C205.829 34.1299 205.935 34.5713 206.147 34.9409C206.365 35.3104 206.694 35.6423 207.131 35.9366C207.576 36.224 208.321 36.5627 209.367 36.9528C210.467 37.3771 211.206 37.7466 211.582 38.0614C211.964 38.3694 212.156 38.7424 212.156 39.1803C212.156 39.762 211.917 40.1966 211.438 40.484C210.96 40.7646 210.276 40.9049 209.387 40.9049C208.813 40.9049 208.215 40.8262 207.593 40.6688C206.977 40.5114 206.4 40.2958 205.86 40.0221V41.6029C206.694 42.0751 207.856 42.3112 209.346 42.3112C210.754 42.3112 211.848 42.0272 212.628 41.4592ZM220.206 40.9049C220.507 40.9049 220.797 40.8843 221.077 40.8433C221.358 40.7954 221.58 40.7475 221.744 40.6996V42.0032C221.559 42.0922 221.286 42.1641 220.924 42.2188C220.568 42.2804 220.247 42.3112 219.96 42.3112C217.786 42.3112 216.699 41.1649 216.699 38.8724V32.1795H215.089V31.3583L216.699 30.65L217.417 28.248H218.401V30.8554H221.662V32.1795H218.401V38.8005C218.401 39.478 218.562 39.9981 218.883 40.3608C219.204 40.7235 219.645 40.9049 220.206 40.9049ZM230.081 41.4592C230.86 40.8912 231.25 40.0837 231.25 39.0366C231.25 38.2907 231.014 37.6714 230.542 37.1786C230.078 36.6859 229.179 36.1966 227.845 35.7107C226.875 35.348 226.218 35.0709 225.877 34.8793C225.535 34.6876 225.285 34.4858 225.128 34.2736C224.978 34.0615 224.902 33.8049 224.902 33.5037C224.902 33.0589 225.107 32.7099 225.518 32.4567C225.928 32.2035 226.536 32.0769 227.343 32.0769C228.259 32.0769 229.281 32.3096 230.409 32.7749L231.014 31.3891C229.859 30.8964 228.676 30.65 227.466 30.65C226.167 30.65 225.145 30.9169 224.4 31.4507C223.655 31.9777 223.282 32.6996 223.282 33.6167C223.282 34.1299 223.388 34.5713 223.6 34.9409C223.819 35.3104 224.147 35.6423 224.585 35.9366C225.029 36.224 225.774 36.5627 226.82 36.9528C227.921 37.3771 228.659 37.7466 229.035 38.0614C229.418 38.3694 229.609 38.7424 229.609 39.1803C229.609 39.762 229.37 40.1966 228.891 40.484C228.413 40.7646 227.729 40.9049 226.841 40.9049C226.266 40.9049 225.668 40.8262 225.046 40.6688C224.431 40.5114 223.853 40.2958 223.313 40.0221V41.6029C224.147 42.0751 225.309 42.3112 226.799 42.3112C228.208 42.3112 229.302 42.0272 230.081 41.4592Z" fill="#3B3A39"/>
<path d="M0.671868 12.9865C-0.190509 12.1816 -0.238352 10.828 0.619127 10.0179C3.78591 7.02616 7.46865 4.61781 11.4964 2.91178C16.1816 0.927288 21.2309 -0.0633216 26.3221 0.00313556C31.4133 0.0695928 36.4347 1.19166 41.066 3.29776C45.0475 5.10834 48.6655 7.61199 51.7524 10.6854C52.5883 11.5176 52.5048 12.8694 51.6215 13.6515C50.7382 14.4337 49.3901 14.3492 48.5478 13.5235C45.8607 10.8892 42.7277 8.73875 39.2874 7.17427C35.1971 5.31422 30.7623 4.32324 26.2659 4.26455C21.7695 4.20585 17.3102 5.08073 13.1723 6.83338C9.69203 8.30752 6.5034 10.3754 3.74785 12.9387C2.88411 13.7421 1.53425 13.7914 0.671868 12.9865Z" fill="url(#paint0_radial)"/>
<path d="M7.35073 18.778C6.48735 17.9709 6.43933 16.6129 7.31414 15.8181C9.62422 13.7193 12.2774 12.02 15.1643 10.7962C18.71 9.29314 22.5309 8.5403 26.3844 8.58544C30.2379 8.63058 34.0399 9.47272 37.5491 11.0584C40.4062 12.3495 43.0185 14.1105 45.2783 16.2628C46.1341 17.0779 46.054 18.4344 45.1718 19.221C44.2896 20.0077 42.9401 19.9252 42.0729 19.1222C40.2177 17.4042 38.0922 15.9929 35.7765 14.9465C32.8085 13.6054 29.593 12.8931 26.3339 12.8549C23.0748 12.8168 19.8433 13.4535 16.8445 14.7247C14.5047 15.7165 12.3464 17.0778 10.4511 18.7517C9.56516 19.5342 8.2141 19.5851 7.35073 18.778Z" fill="url(#paint1_radial)"/>
<path d="M32.739 35.3076C32.739 34.2955 33.5631 33.4751 34.5797 33.4751H34.7781C35.7947 33.4751 36.6188 34.2955 36.6188 35.3076V38.0801C36.6188 39.0922 35.7947 39.9126 34.7781 39.9126H34.5797C33.5631 39.9126 32.739 39.0922 32.739 38.0801V35.3076Z" fill="url(#paint2_radial)"/>
<path d="M15.0646 35.3079C15.0646 34.2958 15.8887 33.4754 16.9052 33.4754H17.1037C18.1203 33.4754 18.9443 34.2958 18.9443 35.3079V38.0804C18.9443 39.0925 18.1202 39.9129 17.1037 39.9129H16.9052C15.8887 39.9129 15.0646 39.0925 15.0646 38.0804V35.3079Z" fill="url(#paint3_radial)"/>
<path fill-rule="evenodd" clip-rule="evenodd" d="M25.8417 55.7916C36.5553 55.7916 45.2404 47.1451 45.2404 36.479C45.2404 25.813 36.5553 17.1665 25.8417 17.1665C15.128 17.1665 6.4429 25.813 6.4429 36.479C6.4429 47.1451 15.128 55.7916 25.8417 55.7916ZM17.0938 30.0415C13.5923 30.0415 10.7537 32.8674 10.7537 36.3534V37.0339C10.7537 40.5198 13.5923 43.3457 17.0938 43.3457H21.8871L24.5851 40.1249C25.2392 39.344 26.4441 39.344 27.0982 40.1249L29.7962 43.3457H34.5896C38.0911 43.3457 40.9296 40.5198 40.9296 37.0339V36.3534C40.9296 32.8675 38.0911 30.0415 34.5896 30.0415H17.0938Z" fill="url(#paint4_radial)"/>
<defs>
<radialGradient id="paint0_radial" cx="0" cy="0" r="1" gradientUnits="userSpaceOnUse" gradientTransform="translate(3.82909e-06 0.00321741) rotate(48.1877) scale(74.8502 342.282)">
<stop stop-color="#C00CC0"/>
<stop offset="1" stop-color="#E10890"/>
</radialGradient>
<radialGradient id="paint1_radial" cx="0" cy="0" r="1" gradientUnits="userSpaceOnUse" gradientTransform="translate(3.82909e-06 0.00321741) rotate(48.1877) scale(74.8502 342.282)">
<stop stop-color="#C00CC0"/>
<stop offset="1" stop-color="#E10890"/>
</radialGradient>
<radialGradient id="paint2_radial" cx="0" cy="0" r="1" gradientUnits="userSpaceOnUse" gradientTransform="translate(3.82909e-06 0.00321741) rotate(48.1877) scale(74.8502 342.282)">
<stop stop-color="#C00CC0"/>
<stop offset="1" stop-color="#E10890"/>
</radialGradient>
<radialGradient id="paint3_radial" cx="0" cy="0" r="1" gradientUnits="userSpaceOnUse" gradientTransform="translate(3.82909e-06 0.00321741) rotate(48.1877) scale(74.8502 342.282)">
<stop stop-color="#C00CC0"/>
<stop offset="1" stop-color="#E10890"/>
</radialGradient>
<radialGradient id="paint4_radial" cx="0" cy="0" r="1" gradientUnits="userSpaceOnUse" gradientTransform="translate(3.82909e-06 0.00321741) rotate(48.1877) scale(74.8502 342.282)">
<stop stop-color="#C00CC0"/>
<stop offset="1" stop-color="#E10890"/>
</radialGradient>
</defs>
</svg>
