<svg width="28" height="28" viewBox="0 0 28 28" fill="none" xmlns="http://www.w3.org/2000/svg">
<path fill-rule="evenodd" clip-rule="evenodd" d="M19.5 6C18.6716 6 18 6.67157 18 7.5C18 8.32843 18.6716 9 19.5 9C20.3284 9 21 8.32843 21 7.5C21 6.67157 20.3284 6 19.5 6ZM16 7.5C16 5.567 17.567 4 19.5 4C21.433 4 23 5.567 23 7.5C23 9.433 21.433 11 19.5 11C18.4932 11 17.5857 10.5749 16.9472 9.89444L10.9478 12.8942C10.9821 13.0909 11 13.2934 11 13.5C11 13.7948 10.9635 14.0811 10.8949 14.3547L17.0999 17.9525C17.7266 17.3619 18.571 17 19.5 17C21.433 17 23 18.567 23 20.5C23 22.433 21.433 24 19.5 24C17.567 24 16 22.433 16 20.5C16 20.2184 16.0333 19.9446 16.096 19.6823L9.87213 16.0735C9.24847 16.6487 8.41526 17 7.5 17C5.567 17 4 15.433 4 13.5C4 11.567 5.567 10 7.5 10C8.50678 10 9.41428 10.4251 10.0528 11.1056L16.0522 8.10585C16.0179 7.90906 16 7.70662 16 7.5ZM7.5 12C6.67157 12 6 12.6716 6 13.5C6 14.3284 6.67157 15 7.5 15C8.32843 15 9 14.3284 9 13.5C9 12.6716 8.32843 12 7.5 12ZM18 20.5C18 19.6716 18.6716 19 19.5 19C20.3284 19 21 19.6716 21 20.5C21 21.3284 20.3284 22 19.5 22C18.6716 22 18 21.3284 18 20.5Z" fill="#C00CC0"/>
</svg>
