<svg width="15" height="16" viewBox="0 0 15 16" fill="none" xmlns="http://www.w3.org/2000/svg">
<path fill-rule="evenodd" clip-rule="evenodd" d="M9.00001 1.75C6.6528 1.75 4.75001 3.65279 4.75001 6C4.75001 7.2816 5.31635 8.43006 6.21497 9.21041C6.36713 9.34255 6.45972 9.53036 6.47186 9.73151C6.484 9.93267 6.41468 10.1303 6.27951 10.2797L1.5563 15.503C1.27848 15.8103 0.804206 15.8341 0.496975 15.5563C0.189744 15.2785 0.165898 14.8042 0.443715 14.497L4.68775 9.80359C3.79362 8.79045 3.25001 7.4584 3.25001 6C3.25001 2.82436 5.82437 0.25 9.00001 0.25C12.1756 0.25 14.75 2.82436 14.75 6C14.75 9.17564 12.1756 11.75 9.00001 11.75C8.58579 11.75 8.25001 11.4142 8.25001 11C8.25001 10.5858 8.58579 10.25 9.00001 10.25C11.3472 10.25 13.25 8.34721 13.25 6C13.25 3.65279 11.3472 1.75 9.00001 1.75Z" fill="#C00CC0"/>
</svg>
