<svg width="20" height="20" viewBox="0 0 20 20" fill="none" xmlns="http://www.w3.org/2000/svg">
	<path fill-rule="evenodd" clip-rule="evenodd" d="M11.9591 0.919921C10.8819 -0.173502 9.11814 -0.173502 8.04097 0.919921L7.14341 1.83102C6.9062 2.07181 6.58158 2.20627 6.24358 2.20374L4.96467 2.19416C3.42983 2.18267 2.18267 3.42983 2.19416 4.96467L2.20374 6.24358C2.20627 6.58158 2.07181 6.9062 1.83102 7.14341L0.919921 8.04097C-0.173502 9.11814 -0.173502 10.8819 0.919921 11.9591L1.83102 12.8566C2.07181 13.0938 2.20627 13.4184 2.20374 13.7564L2.19416 15.0354C2.18267 16.5702 3.42983 17.8174 4.96467 17.8059L6.24358 17.7963C6.58158 17.7938 6.9062 17.9282 7.14341 18.169L8.04097 19.0801C9.11814 20.1735 10.8819 20.1735 11.9591 19.0801L12.8566 18.169C13.0938 17.9282 13.4184 17.7938 13.7564 17.7963L15.0354 17.8059C16.5702 17.8174 17.8174 16.5702 17.8059 15.0354L17.7963 13.7564C17.7938 13.4184 17.9282 13.0938 18.169 12.8566L19.0801 11.9591C20.1735 10.8819 20.1735 9.11814 19.0801 8.04097L18.169 7.14341C17.9282 6.9062 17.7938 6.58158 17.7963 6.24358L17.8059 4.96467C17.8174 3.42983 16.5702 2.18267 15.0354 2.19416L13.7564 2.20374C13.4184 2.20627 13.0938 2.07181 12.8566 1.83102L11.9591 0.919921ZM9.10954 1.97261C9.59916 1.4756 10.4009 1.4756 10.8905 1.97261L11.788 2.88371C12.3099 3.41345 13.0241 3.70926 13.7677 3.7037L15.0466 3.69412C15.7442 3.6889 16.3111 4.25579 16.3059 4.95344L16.2963 6.23235C16.2908 6.97595 16.5866 7.69011 17.1163 8.21198L18.0274 9.10954C18.5244 9.59916 18.5244 10.4009 18.0274 10.8905L17.1163 11.788C16.5866 12.3099 16.2908 13.0241 16.2963 13.7677L16.3059 15.0466C16.3111 15.7442 15.7442 16.3111 15.0466 16.3059L13.7677 16.2963C13.0241 16.2908 12.3099 16.5866 11.788 17.1163L10.8905 18.0274C10.4009 18.5244 9.59916 18.5244 9.10954 18.0274L8.21198 17.1163C7.69011 16.5866 6.97595 16.2908 6.23235 16.2963L4.95344 16.3059C4.25579 16.3111 3.6889 15.7442 3.69412 15.0466L3.7037 13.7677C3.70926 13.0241 3.41345 12.3099 2.88371 11.788L1.97261 10.8905C1.4756 10.4009 1.4756 9.59916 1.97261 9.10954L2.88371 8.21198C3.41345 7.69011 3.70926 6.97595 3.7037 6.23235L3.69412 4.95344C3.6889 4.25579 4.25579 3.6889 4.95344 3.69412L6.23235 3.7037C6.97595 3.70926 7.69011 3.41345 8.21198 2.88371L9.10954 1.97261ZM10.7316 6.32207C9.88069 6.15282 8.99742 6.28384 8.23228 6.69281C7.46714 7.10179 6.86748 7.76341 6.53547 8.56495C6.20346 9.3665 6.15964 10.2584 6.41149 11.0886C6.66333 11.9188 7.19526 12.636 7.91663 13.118C8.63799 13.6 9.50417 13.817 10.3676 13.732C10.7798 13.6914 11.0811 13.3243 11.0405 12.9121C10.9999 12.4998 10.6328 12.1986 10.2206 12.2392C9.70251 12.2902 9.1828 12.16 8.74998 11.8708C8.31716 11.5816 7.99801 11.1513 7.8469 10.6532C7.69579 10.155 7.72208 9.6199 7.92128 9.13898C8.12049 8.65805 8.48029 8.26108 8.93937 8.01569C9.39845 7.77031 9.92842 7.6917 10.439 7.79325C10.9495 7.8948 11.4091 8.17024 11.7393 8.57263C12.0695 8.97502 12.25 9.47947 12.25 10C12.25 10.4142 12.5858 10.75 13 10.75C13.4142 10.75 13.75 10.4142 13.75 10C13.75 9.13243 13.4492 8.29169 12.8988 7.62104C12.3484 6.95039 11.5825 6.49133 10.7316 6.32207Z" fill="#FFFFFF"/>
</svg>
