<svg width="20" height="20" viewBox="0 0 20 20" fill="none" xmlns="http://www.w3.org/2000/svg">
	<path fill-rule="evenodd" clip-rule="evenodd" d="M10 1.75C5.44365 1.75 1.75 5.44365 1.75 10C1.75 14.5563 5.44365 18.25 10 18.25C14.5563 18.25 18.25 14.5563 18.25 10C18.25 9.58579 18.5858 9.25 19 9.25C19.4142 9.25 19.75 9.58579 19.75 10C19.75 15.3848 15.3848 19.75 10 19.75C4.61522 19.75 0.25 15.3848 0.25 10C0.25 4.61522 4.61522 0.25 10 0.25C12.7216 0.25 15.1839 1.3661 16.9518 3.16367C17.995 4.22446 17.7139 5.81444 16.7675 6.70682L10.9275 12.2134C9.84539 13.2337 8.1481 13.2088 7.09641 12.1571L5.46967 10.5303C5.17678 10.2374 5.17678 9.76256 5.46967 9.46967C5.76256 9.17678 6.23744 9.17678 6.53033 9.46967L8.15707 11.0964C8.63511 11.5745 9.40661 11.5858 9.89849 11.122L15.7385 5.61546C16.2136 5.16744 16.2091 4.54771 15.8823 4.21546C14.3848 2.69282 12.3032 1.75 10 1.75Z" fill="#FFFFFF"/>
</svg>
