<?xml version="1.0" encoding="UTF-8" standalone="no"?>
<svg
   width="456"
   height="456"
   viewBox="0 0 456 456"
   version="1.1"
   xml:space="preserve"
   style="fill-rule:evenodd;clip-rule:evenodd;stroke-linejoin:round;stroke-miterlimit:2;"
   id="svg10"
   sodipodi:docname="appiconfg.svg"
   inkscape:version="1.1 (c68e22c387, 2021-05-23)"
   xmlns:inkscape="http://www.inkscape.org/namespaces/inkscape"
   xmlns:sodipodi="http://sodipodi.sourceforge.net/DTD/sodipodi-0.dtd"
   xmlns="http://www.w3.org/2000/svg"
   xmlns:svg="http://www.w3.org/2000/svg">
   <sodipodi:namedview
   id="namedview12"
   pagecolor="#ffffff"
   bordercolor="#666666"
   borderopacity="1.0"
   inkscape:pageshadow="2"
   inkscape:pageopacity="0.0"
   inkscape:pagecheckerboard="0"
   showgrid="false"
   inkscape:zoom="1.9144737"
   inkscape:cx="228.52233"
   inkscape:cy="228"
   inkscape:window-width="1440"
   inkscape:window-height="2497"
   inkscape:window-x="-8"
   inkscape:window-y="-8"
   inkscape:window-maximized="1"
   inkscape:current-layer="svg10" />
    
    
    
    
<path
   fill-rule="evenodd"
   clip-rule="evenodd"
   d="m 136.49585,190.47223 c -2.99797,-2.70279 -3.16428,-7.24776 -0.18338,-9.9681 11.00897,-10.04604 23.81154,-18.13295 37.81379,-23.86159 16.28755,-6.66372 33.84072,-9.99007 51.53968,-9.76691 17.69895,0.22315 35.15522,3.99092 51.25569,11.063 13.84103,6.07969 26.41883,14.4868 37.15024,24.80675 2.90561,2.79451 2.61555,7.33384 -0.45519,9.96016 -3.07053,2.62632 -7.75714,2.34258 -10.68534,-0.4302 -9.34128,-8.8457 -20.23304,-16.06651 -32.19291,-21.31978 -14.21931,-6.24589 -29.63645,-9.5735 -45.26761,-9.77057 -15.63116,-0.19709 -31.13369,2.74065 -45.51856,8.62582 -12.09893,4.9501 -23.18383,11.89386 -32.76312,20.50096 -3.00271,2.69798 -7.69536,2.86325 -10.69331,0.16046 z m 23.2184,19.44729 c -3.00142,-2.7101 -3.16851,-7.27012 -0.12732,-9.93885 8.0309,-7.0476 17.2542,-12.75384 27.29011,-16.86318 12.32641,-5.04704 25.60927,-7.57495 39.00554,-7.42348 13.39627,0.15169 26.61351,2.97942 38.81282,8.30414 9.9327,4.33521 19.0139,10.2485 26.87011,17.47578 2.97493,2.73706 2.69638,7.29185 -0.37045,9.93321 -3.06705,2.64157 -7.75822,2.36453 -10.7729,-0.332 -6.44958,-5.76849 -13.83864,-10.50778 -21.88888,-14.02145 -10.31771,-4.50318 -21.49626,-6.89487 -32.82626,-7.02315 -11.32977,-0.12808 -22.56373,2.00996 -32.98878,6.27851 -8.1341,3.33043 -15.63702,7.90131 -22.22587,13.5223 -3.07986,2.62736 -7.77669,2.79827 -10.77812,0.0882 z m 94.65844,49.35118 c -3.53397,0 -6.39895,2.75503 -6.39895,6.15336 v 9.30996 c 0,3.39833 2.86477,6.15335 6.39873,6.15335 h 0.69007 c 3.53397,0 6.39873,-2.75502 6.39873,-6.15335 v -9.30996 c 0,-3.39833 -2.86476,-6.15336 -6.39873,-6.15336 z m -67.84221,6.15441 c 0,-3.39834 2.86498,-6.15336 6.39895,-6.15336 h 0.68985 c 3.53397,0 6.39873,2.75502 6.39873,6.15336 v 9.30995 c 0,3.39834 -2.86476,6.15336 -6.39873,6.15336 h -0.68985 c -3.53397,0 -6.39895,-2.75502 -6.39895,-6.15336 z m 104.90315,3.93258 c 0,35.8153 -30.19289,64.84939 -67.43764,64.84939 -37.24497,0 -67.43786,-29.03409 -67.43786,-64.84939 0,-35.8153 30.19289,-64.84939 67.43786,-64.84939 37.24475,0 67.43764,29.03409 67.43764,64.84939 z m -119.88922,-0.42184 c 0,-11.7054 9.86774,-21.19462 22.04032,-21.19462 h 60.82229 c 12.17258,0 22.04054,9.48922 22.04054,21.19462 v 2.28513 c 0,11.7054 -9.86796,21.19441 -22.04054,21.19441 h -16.66343 l -9.37952,-10.81534 c -2.27378,-2.62193 -6.46239,-2.62193 -8.73639,0 l -9.3793,10.81534 h -16.66365 c -12.17258,0 -22.04032,-9.48901 -22.04032,-21.19441 z"
   fill="white"
   id="path2-7"
   sodipodi:nodetypes="sccsccccccccsscccccscccccssssssssssssssssssssssssssssssccccsss"
   style="stroke-width:2.13064" /></svg>
