<svg width="223" height="90" viewBox="0 0 223 90" fill="none" xmlns="http://www.w3.org/2000/svg">
<path fill-rule="evenodd" clip-rule="evenodd" d="M1.07499 20.8711C-0.304815 19.5775 -0.381364 17.4022 0.990603 16.1002C6.05745 11.292 11.9498 7.42147 18.3943 4.67965C25.8906 1.49028 33.9694 -0.101767 42.1153 0.00503929C50.2612 0.111846 58.2954 1.91516 65.7056 5.29998C72.0759 8.20982 77.8648 12.2336 82.8039 17.1729C84.1412 18.5104 84.0077 20.683 82.5944 21.94C81.1812 23.197 79.0242 23.0612 77.6765 21.7341C73.3772 17.5004 68.3643 14.0444 62.8598 11.5301C56.3154 8.54071 49.2197 6.94806 42.0255 6.85374C34.8313 6.75941 27.6963 8.16546 21.0757 10.9822C15.5072 13.3514 10.4054 16.6748 5.99656 20.7943C4.61457 22.0856 2.45479 22.1647 1.07499 20.8711ZM11.7612 30.1789C10.3798 28.8818 10.3029 26.6993 11.7026 25.422C15.3988 22.0489 19.6438 19.3178 24.2628 17.351C29.936 14.9354 36.0494 13.7255 42.215 13.798C48.3806 13.8706 54.4638 15.224 60.0785 17.7725C64.65 19.8474 68.8296 22.6776 72.4454 26.1367C73.8146 27.4467 73.6864 29.6267 72.2749 30.8909C70.8633 32.1552 68.7042 32.0226 67.3167 30.732C64.3483 27.9711 60.9475 25.7028 57.2424 24.0211C52.4937 21.8658 47.3488 20.7211 42.1342 20.6597C36.9197 20.5984 31.7493 21.6217 26.9512 23.6647C23.2075 25.2587 19.7543 27.4464 16.7218 30.1367C15.3043 31.3942 13.1426 31.476 11.7612 30.1789ZM55.3275 53.7992C53.701 53.7992 52.3824 55.1178 52.3824 56.7443V61.2002C52.3824 62.8267 53.7009 64.1453 55.3274 64.1453H55.645C57.2715 64.1453 58.59 62.8267 58.59 61.2002V56.7443C58.59 55.1178 57.2715 53.7992 55.645 53.7992H55.3275ZM24.1033 56.7448C24.1033 55.1183 25.4219 53.7997 27.0484 53.7997H27.3659C28.9924 53.7997 30.3109 55.1183 30.3109 56.7448V61.2007C30.3109 62.8272 28.9924 64.1458 27.3659 64.1458H27.0484C25.4219 64.1458 24.1033 62.8272 24.1033 61.2007V56.7448ZM72.3847 58.627C72.3847 75.7688 58.4885 89.665 41.3467 89.665C24.2048 89.665 10.3086 75.7688 10.3086 58.627C10.3086 41.4852 24.2048 27.589 41.3467 27.589C58.4885 27.589 72.3847 41.4852 72.3847 58.627ZM17.206 58.4251C17.206 52.8227 21.7476 48.281 27.35 48.281H55.3433C60.9457 48.281 65.4874 52.8227 65.4874 58.4251V59.5188C65.4874 65.1212 60.9457 69.6628 55.3433 69.6628H47.674L43.3571 64.4864C42.3106 63.2315 40.3828 63.2315 39.3362 64.4864L35.0194 69.6628H27.35C21.7476 69.6628 17.206 65.1212 17.206 59.5188V58.4251ZM144.089 49H152V3H145.032V32.64C145.032 35.5487 145.134 37.6125 145.336 38.8312H145.215C144.971 38.3181 144.424 37.3772 143.572 36.0083L123.428 3H115V49H121.999V18.8464C121.999 15.6175 121.917 13.5111 121.755 12.5272H121.938C122.282 13.4467 122.719 14.3344 123.246 15.1898L144.089 49ZM99.3035 48.7C100.172 49.5668 101.228 50 102.469 50C103.731 50 104.797 49.5668 105.666 48.7C106.555 47.8111 107 46.7556 107 45.5335C107 44.2888 106.555 43.2224 105.666 42.3334C104.797 41.4445 103.731 41 102.469 41C101.228 41 100.172 41.4445 99.3035 42.3334C98.4345 43.2224 98 44.2888 98 45.5335C98 46.7556 98.4345 47.8111 99.3035 48.7ZM187 49H162V3H186.006V9.47994H169.392V22.5035H184.702V28.9512H169.392V42.5523H187V49ZM210.186 9.47994H223V3H190V9.47994H202.783V49H210.186V9.47994ZM146.525 86.6104H149.213V62H146.525V72.2922H146.459C145.41 70.4957 143.732 69.5974 141.426 69.5974C139.098 69.5974 137.235 70.4253 135.836 72.0812C134.437 73.737 133.738 75.9394 133.738 78.6883C133.738 81.2533 134.366 83.2825 135.623 84.776C136.891 86.2587 138.579 87 140.689 87C143.29 87 145.213 85.9286 146.459 83.7857H146.525V86.6104ZM146.525 76.6429V79.0942C146.525 80.7284 146.055 82.0812 145.115 83.1526C144.186 84.224 142.973 84.7597 141.475 84.7597C139.956 84.7597 138.743 84.2078 137.836 83.1039C136.94 81.9892 136.492 80.474 136.492 78.5584C136.492 76.4589 136.962 74.8139 137.902 73.6234C138.842 72.4329 140.131 71.8377 141.77 71.8377C143.148 71.8377 144.284 72.303 145.18 73.2338C146.077 74.1645 146.525 75.3009 146.525 76.6429ZM100.754 77.8117V86.6104H98V63.3312H104.459C106.973 63.3312 108.918 63.9372 110.295 65.1494C111.683 66.3615 112.377 68.0714 112.377 70.2792C112.377 72.487 111.607 74.2944 110.066 75.7013C108.536 77.1082 106.464 77.8117 103.852 77.8117H100.754ZM100.754 65.7987V75.3442H103.639C105.541 75.3442 106.989 74.9167 107.984 74.0617C108.989 73.1959 109.492 71.9784 109.492 70.4091C109.492 67.3355 107.656 65.7987 103.984 65.7987H100.754ZM122.23 87C119.749 87 117.765 86.2262 116.279 84.6786C114.803 83.1201 114.066 81.0584 114.066 78.4935C114.066 75.7013 114.836 73.5206 116.377 71.9513C117.918 70.382 120 69.5974 122.623 69.5974C125.126 69.5974 127.076 70.3604 128.475 71.8864C129.885 73.4123 130.59 75.5281 130.59 78.2338C130.59 80.8853 129.831 83.0119 128.311 84.6136C126.803 86.2045 124.776 87 122.23 87ZM122.426 71.8377C120.699 71.8377 119.333 72.4221 118.328 73.5909C117.322 74.7489 116.82 76.3506 116.82 78.3961C116.82 80.3658 117.328 81.9188 118.344 83.0552C119.361 84.1916 120.721 84.7597 122.426 84.7597C124.164 84.7597 125.497 84.2024 126.426 83.0877C127.366 81.9729 127.836 80.3874 127.836 78.3312C127.836 76.2533 127.366 74.6515 126.426 73.526C125.497 72.4004 124.164 71.8377 122.426 71.8377ZM166.098 85.8474C164.809 86.6158 163.279 87 161.508 87C159.115 87 157.18 86.2316 155.705 84.6948C154.24 83.1472 153.508 81.145 153.508 78.6883C153.508 75.9502 154.301 73.7533 155.885 72.0974C157.47 70.4307 159.585 69.5974 162.23 69.5974C163.705 69.5974 165.005 69.868 166.131 70.4091V73.1364C164.885 72.2706 163.552 71.8377 162.131 71.8377C160.415 71.8377 159.005 72.4491 157.902 73.6721C156.809 74.8842 156.262 76.4805 156.262 78.461C156.262 80.4091 156.776 81.9459 157.803 83.0714C158.842 84.197 160.23 84.7597 161.967 84.7597C163.432 84.7597 164.809 84.2781 166.098 83.3149V85.8474ZM179.492 86.6104H182.18V75.7987C182.18 71.6645 180.208 69.5974 176.262 69.5974C174.109 69.5974 172.208 70.1169 170.557 71.1558V73.8831C172.186 72.5195 174.011 71.8377 176.033 71.8377C178.339 71.8377 179.492 73.25 179.492 76.0747L174.459 76.7727C170.765 77.2814 168.918 79.0887 168.918 82.1948C168.918 83.645 169.388 84.8084 170.328 85.6851C171.279 86.5617 172.59 87 174.262 87C176.536 87 178.257 86.0043 179.426 84.013H179.492V86.6104ZM175.443 78.7533L179.492 78.2013V79.8571C179.492 81.2749 179.055 82.4491 178.18 83.3799C177.317 84.2998 176.219 84.7597 174.885 84.7597C173.913 84.7597 173.131 84.5054 172.541 83.9967C171.962 83.4773 171.672 82.8117 171.672 82C171.672 80.8853 171.989 80.1115 172.623 79.6786C173.257 79.2348 174.197 78.9264 175.443 78.7533ZM186.23 86.0097V83.1526C187.694 84.224 189.306 84.7597 191.066 84.7597C193.426 84.7597 194.607 83.9805 194.607 82.4221C194.607 81.9784 194.503 81.605 194.295 81.3019C194.098 80.9881 193.825 80.7121 193.475 80.474C193.137 80.2359 192.732 80.0249 192.262 79.8409C191.803 79.6461 191.306 79.4459 190.77 79.2403C190.027 78.9481 189.372 78.6558 188.803 78.3636C188.246 78.0606 187.776 77.7251 187.393 77.3571C187.022 76.9784 186.738 76.5509 186.541 76.0747C186.355 75.5985 186.262 75.0411 186.262 74.4026C186.262 73.6234 186.443 72.9361 186.803 72.3409C187.164 71.7348 187.645 71.2316 188.246 70.8312C188.847 70.4199 189.53 70.1115 190.295 69.9058C191.071 69.7002 191.869 69.5974 192.689 69.5974C194.142 69.5974 195.443 69.8463 196.59 70.3442V73.039C195.355 72.2381 193.934 71.8377 192.328 71.8377C191.825 71.8377 191.372 71.8972 190.967 72.0162C190.563 72.1245 190.213 72.2814 189.918 72.487C189.634 72.6926 189.41 72.9416 189.246 73.2338C189.093 73.5152 189.016 73.829 189.016 74.1753C189.016 74.6082 189.093 74.9708 189.246 75.263C189.41 75.5552 189.645 75.8149 189.951 76.0422C190.257 76.2695 190.628 76.4751 191.066 76.6591C191.503 76.8431 192 77.0433 192.557 77.2597C193.301 77.5411 193.967 77.8333 194.557 78.1364C195.148 78.4286 195.65 78.7641 196.066 79.1429C196.481 79.5108 196.798 79.9383 197.016 80.4253C197.246 80.9123 197.361 81.4913 197.361 82.1623C197.361 82.9848 197.175 83.6991 196.803 84.3052C196.443 84.9113 195.956 85.4145 195.344 85.8149C194.732 86.2154 194.027 86.513 193.23 86.7078C192.432 86.9026 191.596 87 190.721 87C188.995 87 187.497 86.6699 186.23 86.0097ZM206.787 86.9675C207.825 86.9675 208.661 86.7944 209.295 86.4481V84.1753C208.803 84.5433 208.219 84.7273 207.541 84.7273C206.656 84.7273 206.022 84.4892 205.639 84.013C205.257 83.5368 205.066 82.7413 205.066 81.6266V72.2597H209.295V69.987H205.066V65.0682L202.377 65.9286V69.987H199.492V72.2597H202.377V82.0974C202.377 85.3442 203.847 86.9675 206.787 86.9675ZM211.869 86.0097V83.1526C213.333 84.224 214.945 84.7597 216.705 84.7597C219.066 84.7597 220.246 83.9805 220.246 82.4221C220.246 81.9784 220.142 81.605 219.934 81.3019C219.738 80.9881 219.464 80.7121 219.115 80.474C218.776 80.2359 218.372 80.0249 217.902 79.8409C217.443 79.6461 216.945 79.4459 216.41 79.2403C215.667 78.9481 215.011 78.6558 214.443 78.3636C213.885 78.0606 213.415 77.7251 213.033 77.3571C212.661 76.9784 212.377 76.5509 212.18 76.0747C211.995 75.5985 211.902 75.0411 211.902 74.4026C211.902 73.6234 212.082 72.9361 212.443 72.3409C212.803 71.7348 213.284 71.2316 213.885 70.8312C214.486 70.4199 215.169 70.1115 215.934 69.9058C216.71 69.7002 217.508 69.5974 218.328 69.5974C219.781 69.5974 221.082 69.8463 222.23 70.3442V73.039C220.995 72.2381 219.574 71.8377 217.967 71.8377C217.464 71.8377 217.011 71.8972 216.607 72.0162C216.202 72.1245 215.852 72.2814 215.557 72.487C215.273 72.6926 215.049 72.9416 214.885 73.2338C214.732 73.5152 214.656 73.829 214.656 74.1753C214.656 74.6082 214.732 74.9708 214.885 75.263C215.049 75.5552 215.284 75.8149 215.59 76.0422C215.896 76.2695 216.268 76.4751 216.705 76.6591C217.142 76.8431 217.639 77.0433 218.197 77.2597C218.94 77.5411 219.607 77.8333 220.197 78.1364C220.787 78.4286 221.29 78.7641 221.705 79.1429C222.12 79.5108 222.437 79.9383 222.656 80.4253C222.885 80.9123 223 81.4913 223 82.1623C223 82.9848 222.814 83.6991 222.443 84.3052C222.082 84.9113 221.596 85.4145 220.984 85.8149C220.372 86.2154 219.667 86.513 218.869 86.7078C218.071 86.9026 217.235 87 216.361 87C214.634 87 213.137 86.6699 211.869 86.0097Z" fill="white"/>
</svg>
